
        <svg xmlns="http://www.w3.org/2000/svg" xmlns:xlink="http://www.w3.org/1999/xlink" version="1.1" width="3240" height="1113.7183490563045" viewBox="0 0 3240 1113.7183490563045">
			
			<g transform="scale(12.000000000000002) translate(10, 10)">
				<defs id="SvgjsDefs1816"/><g id="SvgjsG1817" featureKey="nameFeature-0" transform="matrix(2.6003212310895827,0,0,2.6003212310895827,-4.161616639302243,-31.20298682222462)" fill="#000"><path d="M23.01 20.688 c0 1.9432 -0.65408 3.8078 -1.8158 5.3116 c1.162 1.504 1.8161 3.3685 1.8161 5.3116 c0 4.7908 -3.8974 8.6884 -8.6884 8.6884 l-2.2625 0 c-0.58252 0 -1.1411 -0.23141 -1.5529 -0.64316 l-8.2628 -8.2628 c-0.85784 -0.85756 -0.85756 -2.248 0 -3.1056 s2.248 -0.85756 3.1056 0 l7.6196 7.6196 l1.3528 0 c2.3688 0 4.296 -1.9274 4.296 -4.296 c0 -1.3956 -0.6838 -2.7096 -1.829 -3.5156 c-0.58468 -0.4112 -0.93252 -1.0813 -0.93252 -1.7961 s0.34781 -1.3849 0.93252 -1.7961 c1.1452 -0.80568 1.829 -2.12 1.829 -3.5156 c0 -2.3688 -1.9274 -4.296 -4.296 -4.296 l-8.3289 0 l0 3.9768 l7.6192 7.6196 c0.85784 0.85756 0.85784 2.248 0 3.1056 c-0.85756 0.85784 -2.248 0.85784 -3.1056 0 l-8.2628 -8.2628 c-0.41176 -0.41176 -0.64316 -0.9704 -0.64316 -1.5529 l0 -7.0824 c0 -1.2128 0.98328 -2.196 2.196 -2.196 l10.525 0 c4.7908 0 8.6884 3.8974 8.6884 8.6884 z M35.228 19.412 c5.6764 0 10.294 4.6176 10.294 10.294 s-4.6176 10.294 -10.294 10.294 s-10.294 -4.6176 -10.294 -10.294 s4.6176 -10.294 10.294 -10.294 z M35.228 35.608 c3.2543 0 5.902 -2.6476 5.902 -5.902 s-2.6476 -5.902 -5.902 -5.902 s-5.902 2.6476 -5.902 5.902 s2.6476 5.902 5.902 5.902 z M58.868 29.706 l6.5452 6.5448 c0.85756 0.85756 0.85756 2.248 0 3.1056 c-0.4288 0.4288 -0.99072 0.64316 -1.5529 0.64316 s-1.1241 -0.21438 -1.5529 -0.64316 l-6.5452 -6.5452 l-6.5452 6.5452 c-0.4288 0.4288 -0.99072 0.64316 -1.5529 0.64316 s-1.1241 -0.21438 -1.5529 -0.64316 c-0.85756 -0.85756 -0.85756 -2.248 0 -3.1056 l6.5452 -6.5452 l-6.5452 -6.5452 c-0.85756 -0.85756 -0.85756 -2.248 0 -3.1056 c0.85784 -0.85756 2.248 -0.85756 3.1058 0 l6.5452 6.5452 l6.5452 -6.5448 c0.85784 -0.85756 2.248 -0.85756 3.1058 0 c0.85756 0.85756 0.85756 2.248 0 3.1056 z M79.693 35.6076 c1.2128 0 2.1954 0.98328 2.1954 2.196 s-0.98328 2.196 -2.196 2.196 l-9.4944 0 c-1.2128 0 -2.196 -0.98328 -2.196 -2.196 c0 -5.022 2.9334 -8.476 5.5216 -11.523 c2.1436 -2.5236 3.9949 -4.7032 3.9227 -7.3024 c-0.00054688 -0.020312 -0.00082032 -0.040624 -0.00082032 -0.060936 c0 -1.3926 -1.1329 -2.5255 -2.5255 -2.5255 s-2.5255 1.1329 -2.5255 2.5255 c0 1.2128 -0.98328 2.196 -2.196 2.196 s-2.196 -0.98328 -2.196 -2.196 c0 -3.8143 3.103 -6.9176 6.9176 -6.9176 c3.8039 0 6.9004 3.086 6.9176 6.886 c0.10652 4.266 -2.4722 7.302 -4.966 10.238 c-1.781 2.0973 -3.4857 4.1044 -4.1664 6.4836 l6.9879 0 z M95.547 35.6076 c1.2128 0 2.1954 0.98328 2.1954 2.196 s-0.98328 2.196 -2.196 2.196 l-9.4944 0 c-1.2128 0 -2.196 -0.98328 -2.196 -2.196 c0 -5.022 2.9334 -8.476 5.5216 -11.523 c2.1436 -2.5236 3.9949 -4.7032 3.9227 -7.3024 c-0.00054688 -0.020312 -0.00082032 -0.040624 -0.00082032 -0.060936 c0 -1.3926 -1.1329 -2.5255 -2.5255 -2.5255 s-2.5255 1.1329 -2.5255 2.5255 c0 1.2128 -0.98328 2.196 -2.196 2.196 s-2.196 -0.98328 -2.196 -2.196 c0 -3.8143 3.103 -6.9176 6.9176 -6.9176 c3.8039 0 6.9004 3.086 6.9176 6.886 c0.10652 4.266 -2.4722 7.302 -4.966 10.238 c-1.781 2.0973 -3.4857 4.1044 -4.1664 6.4836 l6.9879 0 z"/></g>
			</g>
		</svg>
	