<svg xmlns="http://www.w3.org/2000/svg" enable-background="new 0 0 3000 2500" viewBox="0 0 3000 2500" id="Businessinvoicereportnetwork"><rect width="2918.6" height="2432.2" x="40.7" y="33.9" fill="none"></rect><g opacity=".15" fill="#000000" class="color000000 svgShape"><path fill="#110305" d="M2144.3,2000.6c56.5,68-162.1,132.9-488.2,144.9s-636.2-33.3-692.7-101.3c-56.5-68,162.1-132.9,488.2-144.9    C1777.7,1887.2,2087.9,1932.6,2144.3,2000.6z" opacity="0" class="color030611 svgShape"></path><path fill="#110305" d="M2133.6,2001c55.5,66.8-159.1,130.5-479.3,142.3s-624.7-32.7-680.1-99.5c-55.5-66.8,159.1-130.5,479.3-142.3    S2078.2,1934.2,2133.6,2001z" opacity=".037" class="color030611 svgShape"></path><path fill="#110305" d="M2122.9,2001.4c54.4,65.5-156.2,128-470.5,139.6s-613.1-32.1-667.6-97.7c-54.4-65.5,156.2-128,470.5-139.6    C1769.6,1892.1,2068.5,1935.8,2122.9,2001.4z" opacity=".074" class="color030611 svgShape"></path><path fill="#110305" d="M2112.2,2001.8c53.4,64.3-153.3,125.6-461.6,137c-308.4,11.4-601.6-31.5-655-95.8    c-53.4-64.3,153.3-125.6,461.6-137C1765.6,1894.6,2058.8,1937.5,2112.2,2001.8z" opacity=".111" class="color030611 svgShape"></path><path fill="#110305" d="M2101.5,2002.1c52.4,63.1-150.3,123.2-452.8,134.4s-590.1-30.9-642.5-94c-52.4-63.1,150.3-123.2,452.8-134.4    S2049.1,1939.1,2101.5,2002.1z" opacity=".148" class="color030611 svgShape"></path><path fill="#110305" d="M2090.8,2002.5c51.4,61.8-147.4,120.8-443.9,131.8c-296.5,10.9-578.5-30.3-629.9-92.2    c-51.4-61.8,147.4-120.8,443.9-131.8S2039.5,1940.7,2090.8,2002.5z" opacity=".185" class="color030611 svgShape"></path><path fill="#110305" d="M2080.1,2002.9c50.3,60.6-144.5,118.4-435.1,129.1c-290.6,10.7-567-29.7-617.3-90.3    c-50.3-60.6,144.5-118.4,435.1-129.1C1753.4,1901.9,2029.8,1942.3,2080.1,2002.9z" opacity=".222" class="color030611 svgShape"></path><path fill="#110305" d="M2069.4,2003.3c49.3,59.4-141.5,116-426.2,126.5c-284.7,10.5-555.5-29.1-604.8-88.5    c-49.3-59.4,141.5-116,426.2-126.5C1749.3,1904.4,2020.1,1944,2069.4,2003.3z" opacity=".259" class="color030611 svgShape"></path><path fill="#110305" d="M2058.7,2003.7c48.3,58.1-138.6,113.6-417.4,123.9c-278.8,10.3-543.9-28.5-592.2-86.6    c-48.3-58.1,138.6-113.6,417.4-123.9S2010.4,1945.6,2058.7,2003.7z" opacity=".296" class="color030611 svgShape"></path><path fill="#110305" d="M2048,2004.1c47.3,56.9-135.6,111.2-408.5,121.2c-272.9,10.1-532.4-27.9-579.7-84.8    c-47.3-56.9,135.6-111.2,408.5-121.2S2000.7,1947.2,2048,2004.1z" opacity=".333" class="color030611 svgShape"></path><path fill="#110305" d="M2037.3,2004.5c46.2,55.7-132.7,108.8-399.7,118.6c-267,9.8-520.9-27.3-567.1-83    c-46.2-55.7,132.7-108.8,399.7-118.6S1991.1,1948.9,2037.3,2004.5z" opacity=".37" class="color030611 svgShape"></path><path fill="#110305" d="M2026.6,2004.9c45.2,54.4-129.8,106.4-390.8,116c-261.1,9.6-509.3-26.7-554.6-81.1    c-45.2-54.4,129.8-106.4,390.8-116C1733.1,1914.2,1981.4,1950.5,2026.6,2004.9z" opacity=".407" class="color030611 svgShape"></path><path fill="#110305" d="M2015.9,2005.3c44.2,53.2-126.8,104-382,113.4c-255.2,9.4-497.8-26.1-542-79.3    c-44.2-53.2,126.8-104,382-113.4S1971.7,1952.1,2015.9,2005.3z" opacity=".444" class="color030611 svgShape"></path><path fill="#110305" d="M2005.2,2005.7c43.2,52-123.9,101.5-373.1,110.7c-249.2,9.2-486.3-25.5-529.5-77.5    c-43.2-52,123.9-101.5,373.1-110.7C1725,1919.1,1962,1953.7,2005.2,2005.7z" opacity=".481" class="color030611 svgShape"></path><path fill="#110305" d="M1994.5,2006.1c42.1,50.7-120.9,99.1-364.3,108.1c-243.3,9-474.7-24.9-516.9-75.6    c-42.1-50.7,120.9-99.1,364.3-108.1S1952.3,1955.4,1994.5,2006.1z" opacity=".518" class="color030611 svgShape"></path><path fill="#110305" d="M1983.8,2006.5c41.1,49.5-118,96.7-355.4,105.5c-237.4,8.8-463.2-24.3-504.3-73.8    c-41.1-49.5,118-96.7,355.4-105.5S1942.7,1957,1983.8,2006.5z" opacity=".556" class="color030611 svgShape"></path><path fill="#110305" d="M1973.1,2006.9c40.1,48.3-115.1,94.3-346.6,102.9s-451.7-23.7-491.8-71.9c-40.1-48.3,115.1-94.3,346.6-102.9    S1933,1958.6,1973.1,2006.9z" opacity=".593" class="color030611 svgShape"></path><path fill="#110305" d="M1962.4,2007.3c39.1,47-112.1,91.9-337.7,100.2c-225.6,8.3-440.1-23.1-479.2-70.1    c-39.1-47,112.1-91.9,337.7-100.2S1923.3,1960.2,1962.4,2007.3z" opacity=".63" class="color030611 svgShape"></path><path fill="#110305" d="M1951.7,2007.7c38,45.8-109.2,89.5-328.9,97.6s-428.6-22.5-466.7-68.3c-38-45.8,109.2-89.5,328.9-97.6    C1704.7,1931.3,1913.6,1961.9,1951.7,2007.7z" opacity=".667" class="color030611 svgShape"></path><path fill="#110305" d="M1941,2008.1c37,44.6-106.3,87.1-320,95s-417.1-21.9-454.1-66.4c-37-44.6,106.3-87.1,320-95    C1700.6,1933.8,1904,1963.5,1941,2008.1z" opacity=".704" class="color030611 svgShape"></path><path fill="#110305" d="M1930.3,2008.5c36,43.3-103.3,84.7-311.2,92.4s-405.6-21.3-441.6-64.6c-36-43.3,103.3-84.7,311.2-92.4    C1696.6,1936.2,1894.3,1965.1,1930.3,2008.5z" opacity=".741" class="color030611 svgShape"></path><path fill="#110305" d="M1919.6,2008.9c35,42.1-100.4,82.3-302.3,89.7c-201.9,7.4-394-20.7-429-62.8c-35-42.1,100.4-82.3,302.3-89.7    S1884.6,1966.8,1919.6,2008.9z" opacity=".778" class="color030611 svgShape"></path><path fill="#110305" d="M1908.9,2009.3c34,40.9-97.4,79.9-293.5,87.1s-382.5-20-416.4-60.9c-34-40.9,97.4-79.9,293.5-87.1    S1874.9,1968.4,1908.9,2009.3z" opacity=".815" class="color030611 svgShape"></path><path fill="#110305" d="M1898.2,2009.7c32.9,39.6-94.5,77.5-284.6,84.5s-371-19.4-403.9-59.1c-32.9-39.6,94.5-77.5,284.6-84.5    S1865.2,1970,1898.2,2009.7z" opacity=".852" class="color030611 svgShape"></path><path fill="#110305" d="M1887.5,2010c31.9,38.4-91.6,75.1-275.8,81.8s-359.4-18.8-391.3-57.2c-31.9-38.4,91.6-75.1,275.8-81.8    C1680.4,1946,1855.6,1971.6,1887.5,2010z" opacity=".889" class="color030611 svgShape"></path><path fill="#110305" d="M1876.8,2010.4c30.9,37.2-88.6,72.6-266.9,79.2c-178.3,6.6-347.9-18.2-378.8-55.4s88.6-72.6,266.9-79.2    C1676.3,1948.5,1845.9,1973.3,1876.8,2010.4z" opacity=".926" class="color030611 svgShape"></path><path fill="#110305" d="M1866.1,2010.8c29.9,35.9-85.7,70.2-258.1,76.6s-336.4-17.6-366.2-53.6c-29.9-35.9,85.7-70.2,258.1-76.6    C1672.2,1950.9,1836.2,1974.9,1866.1,2010.8z" opacity=".963" class="color030611 svgShape"></path><path fill="#110305" d="M1855.4,2011.2c28.8,34.7-82.8,67.8-249.2,74c-166.5,6.1-324.8-17-353.7-51.7c-28.8-34.7,82.8-67.8,249.2-74    S1826.5,1976.5,1855.4,2011.2z" class="color030611 svgShape"></path></g><g opacity=".15" fill="#000000" class="color000000 svgShape"><path fill="#110305" d="M1058.4,1883.5c35.7,43-102.6,84.1-308.9,91.7c-206.4,7.6-402.6-21.1-438.4-64.1    c-35.7-43,102.6-84.1,308.9-91.7C826.4,1811.8,1022.7,1840.5,1058.4,1883.5z" opacity="0" class="color030611 svgShape"></path><path fill="#110305" d="M1051.7,1883.8c35.1,42.2-100.7,82.6-303.3,90c-202.6,7.5-395.3-20.7-430.4-63    c-35.1-42.2,100.7-82.6,303.3-90S1016.6,1841.5,1051.7,1883.8z" opacity=".037" class="color030611 svgShape"></path><path fill="#110305" d="M1044.9,1884c34.4,41.5-98.9,81-297.7,88.4s-388-20.3-422.5-61.8c-34.4-41.5,98.9-81,297.7-88.4    C821.3,1814.9,1010.4,1842.6,1044.9,1884z" opacity=".074" class="color030611 svgShape"></path><path fill="#110305" d="M1038.1,1884.3c33.8,40.7-97,79.5-292.1,86.7s-380.7-20-414.5-60.6c-33.8-40.7,97-79.5,292.1-86.7    S1004.3,1843.6,1038.1,1884.3z" opacity=".111" class="color030611 svgShape"></path><path fill="#110305" d="M1031.3,1884.5c33.1,39.9-95.1,78-286.5,85c-191.4,7.1-373.4-19.6-406.6-59.5s95.1-78,286.5-85    C816.2,1818,998.2,1844.6,1031.3,1884.5z" opacity=".148" class="color030611 svgShape"></path><path fill="#110305" d="M1024.6,1884.8c32.5,39.1-93.3,76.5-280.9,83.4c-187.7,6.9-366.1-19.2-398.6-58.3    c-32.5-39.1,93.3-76.5,280.9-83.4S992.1,1845.6,1024.6,1884.8z" opacity=".185" class="color030611 svgShape"></path><path fill="#110305" d="M1017.8,1885c31.9,38.3-91.4,74.9-275.3,81.7c-183.9,6.8-358.8-18.8-390.7-57.2    c-31.9-38.3,91.4-74.9,275.3-81.7C811,1821.1,985.9,1846.7,1017.8,1885z" opacity=".222" class="color030611 svgShape"></path><path fill="#110305" d="M1011,1885.3c31.2,37.6-89.6,73.4-269.7,80.1c-180.2,6.6-351.5-18.4-382.7-56s89.6-73.4,269.7-80.1    C808.5,1822.6,979.8,1847.7,1011,1885.3z" opacity=".259" class="color030611 svgShape"></path><path fill="#110305" d="M1004.2,1885.5c30.6,36.8-87.7,71.9-264.1,78.4c-176.4,6.5-344.2-18-374.8-54.8s87.7-71.9,264.1-78.4    S973.7,1848.7,1004.2,1885.5z" opacity=".296" class="color030611 svgShape"></path><path fill="#110305" d="M997.5,1885.8c29.9,36-85.8,70.4-258.5,76.7s-336.9-17.7-366.8-53.7c-29.9-36,85.8-70.4,258.5-76.7    C803.3,1825.7,967.6,1849.8,997.5,1885.8z" opacity=".333" class="color030611 svgShape"></path><path fill="#110305" d="M990.7,1886c29.3,35.2-84,68.8-252.9,75.1c-168.9,6.2-329.6-17.3-358.9-52.5c-29.3-35.2,84-68.8,252.9-75.1    S961.4,1850.8,990.7,1886z" opacity=".37" class="color030611 svgShape"></path><path fill="#110305" d="M983.9,1886.3c28.6,34.4-82.1,67.3-247.3,73.4s-322.3-16.9-350.9-51.3c-28.6-34.4,82.1-67.3,247.3-73.4    C798.2,1828.8,955.3,1851.8,983.9,1886.3z" opacity=".407" class="color030611 svgShape"></path><path fill="#110305" d="M977.2,1886.5c28,33.7-80.3,65.8-241.7,71.7s-315-16.5-343-50.2c-28-33.7,80.3-65.8,241.7-71.7    C795.6,1830.4,949.2,1852.9,977.2,1886.5z" opacity=".444" class="color030611 svgShape"></path><path fill="#110305" d="M970.4,1886.8c27.3,32.9-78.4,64.3-236.1,70.1s-307.7-16.1-335.1-49c-27.3-32.9,78.4-64.3,236.1-70.1    S943.1,1853.9,970.4,1886.8z" opacity=".481" class="color030611 svgShape"></path><path fill="#110305" d="M963.6,1887c26.7,32.1-76.5,62.7-230.5,68.4c-154,5.7-300.4-15.7-327.1-47.9    c-26.7-32.1,76.5-62.7,230.5-68.4C790.5,1833.5,936.9,1854.9,963.6,1887z" opacity=".518" class="color030611 svgShape"></path><path fill="#110305" d="M956.8,1887.3c26,31.3-74.7,61.2-224.9,66.8c-150.2,5.5-293.1-15.4-319.2-46.7    c-26-31.3,74.7-61.2,224.9-66.8C787.9,1835,930.8,1855.9,956.8,1887.3z" opacity=".556" class="color030611 svgShape"></path><path fill="#110305" d="M950.1,1887.5c25.4,30.5-72.8,59.7-219.3,65.1s-285.8-15-311.2-45.5s72.8-59.7,219.3-65.1    C785.3,1836.6,924.7,1857,950.1,1887.5z" opacity=".593" class="color030611 svgShape"></path><path fill="#110305" d="M943.3,1887.8c24.7,29.8-71,58.2-213.7,63.4s-278.5-14.6-303.3-44.4c-24.7-29.8,71-58.2,213.7-63.4    C782.8,1838.1,918.6,1858,943.3,1887.8z" opacity=".63" class="color030611 svgShape"></path><path fill="#110305" d="M936.5,1888c24.1,29-69.1,56.6-208.1,61.8c-139,5.1-271.2-14.2-295.3-43.2c-24.1-29,69.1-56.6,208.1-61.8    C780.2,1839.7,912.4,1859,936.5,1888z" opacity=".667" class="color030611 svgShape"></path><path fill="#110305" d="M929.7,1888.3c23.4,28.2-67.2,55.1-202.5,60.1c-135.3,5-263.9-13.8-287.4-42    c-23.4-28.2,67.2-55.1,202.5-60.1C777.6,1841.2,906.3,1860.1,929.7,1888.3z" opacity=".704" class="color030611 svgShape"></path><path fill="#110305" d="M923,1888.5c22.8,27.4-65.4,53.6-196.9,58.4s-256.6-13.5-279.4-40.9c-22.8-27.4,65.4-53.6,196.9-58.4    S900.2,1861.1,923,1888.5z" opacity=".741" class="color030611 svgShape"></path><path fill="#110305" d="M916.2,1888.8c22.1,26.6-63.5,52.1-191.3,56.8s-249.3-13.1-271.5-39.7c-22.1-26.6,63.5-52.1,191.3-56.8    C772.5,1844.3,894.1,1862.1,916.2,1888.8z" opacity=".778" class="color030611 svgShape"></path><path fill="#110305" d="M909.4,1889c21.5,25.9-61.7,50.5-185.7,55.1c-124.1,4.6-242-12.7-263.5-38.6    c-21.5-25.9,61.7-50.5,185.7-55.1S887.9,1863.2,909.4,1889z" opacity=".815" class="color030611 svgShape"></path><path fill="#110305" d="M902.6,1889.3c20.8,25.1-59.8,49-180.1,53.5c-120.3,4.4-234.7-12.3-255.6-37.4    c-20.8-25.1,59.8-49,180.1-53.5C767.4,1847.4,881.8,1864.2,902.6,1889.3z" opacity=".852" class="color030611 svgShape"></path><path fill="#110305" d="M895.9,1889.5c20.2,24.3-57.9,47.5-174.5,51.8c-116.6,4.3-227.5-11.9-247.6-36.2    c-20.2-24.3,57.9-47.5,174.5-51.8C764.8,1849,875.7,1865.2,895.9,1889.5z" opacity=".889" class="color030611 svgShape"></path><path fill="#110305" d="M889.1,1889.8c19.5,23.5-56.1,46-168.9,50.1c-112.8,4.2-220.2-11.5-239.7-35.1    c-19.5-23.5,56.1-46,168.9-50.1S869.6,1866.2,889.1,1889.8z" opacity=".926" class="color030611 svgShape"></path><path fill="#110305" d="M882.3,1890c18.9,22.7-54.2,44.4-163.3,48.5c-109.1,4-212.9-11.2-231.7-33.9    c-18.9-22.7,54.2-44.4,163.3-48.5C759.7,1852.1,863.4,1867.3,882.3,1890z" opacity=".963" class="color030611 svgShape"></path><path fill="#110305" d="M875.6,1890.3c18.2,22-52.4,42.9-157.7,46.8c-105.4,3.9-205.6-10.8-223.8-32.7    c-18.2-22,52.4-42.9,157.7-46.8C757.1,1853.6,857.3,1868.3,875.6,1890.3z" class="color030611 svgShape"></path></g><g opacity=".15" fill="#000000" class="color000000 svgShape"><path fill="#110305" d="M1299.4,2032c35.7,43-102.6,84.1-308.9,91.7c-206.4,7.6-402.6-21.1-438.4-64.1    c-35.7-43,102.6-84.1,308.9-91.7S1263.6,1989,1299.4,2032z" opacity="0" class="color030611 svgShape"></path><path fill="#110305" d="M1292.6,2032.3c35.1,42.2-100.7,82.6-303.3,90c-202.6,7.5-395.3-20.7-430.4-63    c-35.1-42.2,100.7-82.6,303.3-90S1257.5,1990,1292.6,2032.3z" opacity=".037" class="color030611 svgShape"></path><path fill="#110305" d="M1285.8,2032.5c34.4,41.5-98.9,81-297.7,88.4c-198.9,7.3-388-20.3-422.5-61.8s98.9-81,297.7-88.4    S1251.4,1991,1285.8,2032.5z" opacity=".074" class="color030611 svgShape"></path><path fill="#110305" d="M1279.1,2032.8c33.8,40.7-97,79.5-292.1,86.7c-195.1,7.2-380.7-20-414.5-60.6c-33.8-40.7,97-79.5,292.1-86.7    C1059.7,1964.9,1245.3,1992.1,1279.1,2032.8z" opacity=".111" class="color030611 svgShape"></path><path fill="#110305" d="M1272.3,2033c33.1,39.9-95.1,78-286.5,85s-373.4-19.6-406.6-59.5c-33.1-39.9,95.1-78,286.5-85    C1057.1,1966.5,1239.1,1993.1,1272.3,2033z" opacity=".148" class="color030611 svgShape"></path><path fill="#110305" d="M1265.5,2033.3c32.5,39.1-93.3,76.5-280.9,83.4c-187.7,6.9-366.1-19.2-398.6-58.3    c-32.5-39.1,93.3-76.5,280.9-83.4S1233,1994.1,1265.5,2033.3z" opacity=".185" class="color030611 svgShape"></path><path fill="#110305" d="M1258.7,2033.5c31.9,38.3-91.4,74.9-275.3,81.7s-358.8-18.8-390.7-57.2c-31.9-38.3,91.4-74.9,275.3-81.7    C1052,1969.6,1226.9,1995.2,1258.7,2033.5z" opacity=".222" class="color030611 svgShape"></path><path fill="#110305" d="M1252,2033.8c31.2,37.6-89.6,73.4-269.7,80.1c-180.2,6.6-351.5-18.4-382.7-56    c-31.2-37.6,89.6-73.4,269.7-80.1C1049.4,1971.1,1220.8,1996.2,1252,2033.8z" opacity=".259" class="color030611 svgShape"></path><path fill="#110305" d="M1245.2,2034c30.6,36.8-87.7,71.9-264.1,78.4s-344.2-18-374.8-54.8s87.7-71.9,264.1-78.4    C1046.8,1972.7,1214.6,1997.2,1245.2,2034z" opacity=".296" class="color030611 svgShape"></path><path fill="#110305" d="M1238.4,2034.3c29.9,36-85.8,70.4-258.5,76.7s-336.9-17.7-366.8-53.7c-29.9-36,85.8-70.4,258.5-76.7    C1044.3,1974.2,1208.5,1998.3,1238.4,2034.3z" opacity=".333" class="color030611 svgShape"></path><path fill="#110305" d="M1231.7,2034.5c29.3,35.2-84,68.8-252.9,75.1c-168.9,6.2-329.6-17.3-358.9-52.5    c-29.3-35.2,84-68.8,252.9-75.1S1202.4,1999.3,1231.7,2034.5z" opacity=".37" class="color030611 svgShape"></path><path fill="#110305" d="M1224.9,2034.8c28.6,34.4-82.1,67.3-247.3,73.4s-322.3-16.9-350.9-51.3c-28.6-34.4,82.1-67.3,247.3-73.4    S1196.3,2000.3,1224.9,2034.8z" opacity=".407" class="color030611 svgShape"></path><path fill="#110305" d="M1218.1,2035c28,33.7-80.3,65.8-241.7,71.7s-315-16.5-343-50.2c-28-33.7,80.3-65.8,241.7-71.7    C1036.6,1978.9,1190.1,2001.3,1218.1,2035z" opacity=".444" class="color030611 svgShape"></path><path fill="#110305" d="M1211.3,2035.3c27.3,32.9-78.4,64.3-236.1,70.1c-157.7,5.8-307.7-16.1-335.1-49    c-27.3-32.9,78.4-64.3,236.1-70.1C1034,1980.4,1184,2002.4,1211.3,2035.3z" opacity=".481" class="color030611 svgShape"></path><path fill="#110305" d="M1204.6,2035.5c26.7,32.1-76.5,62.7-230.5,68.4c-154,5.7-300.4-15.7-327.1-47.9    c-26.7-32.1,76.5-62.7,230.5-68.4C1031.4,1982,1177.9,2003.4,1204.6,2035.5z" opacity=".518" class="color030611 svgShape"></path><path fill="#110305" d="M1197.8,2035.8c26,31.3-74.7,61.2-224.9,66.8c-150.2,5.5-293.1-15.4-319.2-46.7    c-26-31.3,74.7-61.2,224.9-66.8C1028.9,1983.5,1171.8,2004.4,1197.8,2035.8z" opacity=".556" class="color030611 svgShape"></path><path fill="#110305" d="M1191,2036c25.4,30.5-72.8,59.7-219.3,65.1s-285.8-15-311.2-45.5c-25.4-30.5,72.8-59.7,219.3-65.1    C1026.3,1985.1,1165.6,2005.5,1191,2036z" opacity=".593" class="color030611 svgShape"></path><path fill="#110305" d="M1184.2,2036.3c24.7,29.8-71,58.2-213.7,63.4s-278.5-14.6-303.3-44.4c-24.7-29.8,71-58.2,213.7-63.4    C1023.7,1986.6,1159.5,2006.5,1184.2,2036.3z" opacity=".63" class="color030611 svgShape"></path><path fill="#110305" d="M1177.5,2036.5c24.1,29-69.1,56.6-208.1,61.8c-139,5.1-271.2-14.2-295.3-43.2c-24.1-29,69.1-56.6,208.1-61.8    C1021.2,1988.2,1153.4,2007.5,1177.5,2036.5z" opacity=".667" class="color030611 svgShape"></path><path fill="#110305" d="M1170.7,2036.8c23.4,28.2-67.2,55.1-202.5,60.1c-135.3,5-263.9-13.8-287.4-42    c-23.4-28.2,67.2-55.1,202.5-60.1S1147.3,2008.6,1170.7,2036.8z" opacity=".704" class="color030611 svgShape"></path><path fill="#110305" d="M1163.9,2037c22.8,27.4-65.4,53.6-196.9,58.4c-131.5,4.9-256.6-13.5-279.4-40.9    c-22.8-27.4,65.4-53.6,196.9-58.4S1141.1,2009.6,1163.9,2037z" opacity=".741" class="color030611 svgShape"></path><path fill="#110305" d="M1157.1,2037.3c22.1,26.6-63.5,52.1-191.3,56.8s-249.3-13.1-271.5-39.7c-22.1-26.6,63.5-52.1,191.3-56.8    S1135,2010.6,1157.1,2037.3z" opacity=".778" class="color030611 svgShape"></path><path fill="#110305" d="M1150.4,2037.5c21.5,25.9-61.7,50.5-185.7,55.1c-124.1,4.6-242-12.7-263.5-38.6    c-21.5-25.9,61.7-50.5,185.7-55.1S1128.9,2011.6,1150.4,2037.5z" opacity=".815" class="color030611 svgShape"></path><path fill="#110305" d="M1143.6,2037.8c20.8,25.1-59.8,49-180.1,53.5c-120.3,4.4-234.7-12.3-255.6-37.4    c-20.8-25.1,59.8-49,180.1-53.5S1122.8,2012.7,1143.6,2037.8z" opacity=".852" class="color030611 svgShape"></path><path fill="#110305" d="M1136.8,2038c20.2,24.3-57.9,47.5-174.5,51.8c-116.6,4.3-227.5-11.9-247.6-36.2    c-20.2-24.3,57.9-47.5,174.5-51.8S1116.6,2013.7,1136.8,2038z" opacity=".889" class="color030611 svgShape"></path><path fill="#110305" d="M1130.1,2038.3c19.5,23.5-56.1,46-168.9,50.1c-112.8,4.2-220.2-11.5-239.7-35.1    c-19.5-23.5,56.1-46,168.9-50.1C1003.2,1999,1110.5,2014.7,1130.1,2038.3z" opacity=".926" class="color030611 svgShape"></path><path fill="#110305" d="M1123.3,2038.5c18.9,22.7-54.2,44.4-163.3,48.5c-109.1,4-212.9-11.2-231.7-33.9    c-18.9-22.7,54.2-44.4,163.3-48.5S1104.4,2015.8,1123.3,2038.5z" opacity=".963" class="color030611 svgShape"></path><path fill="#110305" d="M1116.5,2038.8c18.2,22-52.4,42.9-157.7,46.8s-205.6-10.8-223.8-32.7c-18.2-22,52.4-42.9,157.7-46.8    C998.1,2002.1,1098.3,2016.8,1116.5,2038.8z" class="color030611 svgShape"></path></g><g opacity=".15" fill="#000000" class="color000000 svgShape"><path fill="#110305" d="M2688.9,2032c35.7,43-102.6,84.1-308.9,91.7c-206.4,7.6-402.6-21.1-438.4-64.1    c-35.7-43,102.6-84.1,308.9-91.7C2456.9,1960.3,2653.1,1989,2688.9,2032z" opacity="0" class="color030611 svgShape"></path><path fill="#110305" d="M2682.1,2032.3c35.1,42.2-100.7,82.6-303.3,90c-202.6,7.5-395.3-20.7-430.4-63    c-35.1-42.2,100.7-82.6,303.3-90C2454.3,1961.8,2647,1990,2682.1,2032.3z" opacity=".037" class="color030611 svgShape"></path><path fill="#110305" d="M2675.3,2032.5c34.4,41.5-98.9,81-297.7,88.4c-198.9,7.3-388-20.3-422.5-61.8c-34.4-41.5,98.9-81,297.7-88.4    S2640.9,1991,2675.3,2032.5z" opacity=".074" class="color030611 svgShape"></path><path fill="#110305" d="M2668.5,2032.8c33.8,40.7-97,79.5-292.1,86.7c-195.1,7.2-380.7-20-414.5-60.6c-33.8-40.7,97-79.5,292.1-86.7    S2634.7,1992.1,2668.5,2032.8z" opacity=".111" class="color030611 svgShape"></path><path fill="#110305" d="M2661.8,2033c33.1,39.9-95.1,78-286.5,85c-191.4,7.1-373.4-19.6-406.6-59.5c-33.1-39.9,95.1-78,286.5-85    C2446.6,1966.5,2628.6,1993.1,2661.8,2033z" opacity=".148" class="color030611 svgShape"></path><path fill="#110305" d="M2655,2033.3c32.5,39.1-93.3,76.5-280.9,83.4c-187.7,6.9-366.1-19.2-398.6-58.3    c-32.5-39.1,93.3-76.5,280.9-83.4C2444,1968,2622.5,1994.1,2655,2033.3z" opacity=".185" class="color030611 svgShape"></path><path fill="#110305" d="M2648.2,2033.5c31.9,38.3-91.4,74.9-275.3,81.7s-358.8-18.8-390.7-57.2c-31.9-38.3,91.4-74.9,275.3-81.7    C2441.4,1969.6,2616.4,1995.2,2648.2,2033.5z" opacity=".222" class="color030611 svgShape"></path><path fill="#110305" d="M2641.4,2033.8c31.2,37.6-89.6,73.4-269.7,80.1c-180.2,6.6-351.5-18.4-382.7-56    c-31.2-37.6,89.6-73.4,269.7-80.1C2438.9,1971.1,2610.2,1996.2,2641.4,2033.8z" opacity=".259" class="color030611 svgShape"></path><path fill="#110305" d="M2634.7,2034c30.6,36.8-87.7,71.9-264.1,78.4s-344.2-18-374.8-54.8c-30.6-36.8,87.7-71.9,264.1-78.4    S2604.1,1997.2,2634.7,2034z" opacity=".296" class="color030611 svgShape"></path><path fill="#110305" d="M2627.9,2034.3c29.9,36-85.8,70.4-258.5,76.7c-172.7,6.4-336.9-17.7-366.8-53.7    c-29.9-36,85.8-70.4,258.5-76.7C2433.7,1974.2,2598,1998.3,2627.9,2034.3z" opacity=".333" class="color030611 svgShape"></path><path fill="#110305" d="M2621.1,2034.5c29.3,35.2-84,68.8-252.9,75.1s-329.6-17.3-358.9-52.5c-29.3-35.2,84-68.8,252.9-75.1    C2431.2,1975.8,2591.9,1999.3,2621.1,2034.5z" opacity=".37" class="color030611 svgShape"></path><path fill="#110305" d="M2614.3,2034.8c28.6,34.4-82.1,67.3-247.3,73.4s-322.3-16.9-350.9-51.3c-28.6-34.4,82.1-67.3,247.3-73.4    C2428.6,1977.3,2585.7,2000.3,2614.3,2034.8z" opacity=".407" class="color030611 svgShape"></path><path fill="#110305" d="M2607.6,2035c28,33.7-80.3,65.8-241.7,71.7c-161.5,6-315-16.5-343-50.2c-28-33.7,80.3-65.8,241.7-71.7    C2426,1978.9,2579.6,2001.3,2607.6,2035z" opacity=".444" class="color030611 svgShape"></path><path fill="#110305" d="M2600.8,2035.3c27.3,32.9-78.4,64.3-236.1,70.1s-307.7-16.1-335.1-49c-27.3-32.9,78.4-64.3,236.1-70.1    S2573.5,2002.4,2600.8,2035.3z" opacity=".481" class="color030611 svgShape"></path><path fill="#110305" d="M2594,2035.5c26.7,32.1-76.5,62.7-230.5,68.4c-154,5.7-300.4-15.7-327.1-47.9    c-26.7-32.1,76.5-62.7,230.5-68.4S2567.4,2003.4,2594,2035.5z" opacity=".518" class="color030611 svgShape"></path><path fill="#110305" d="M2587.3,2035.8c26,31.3-74.7,61.2-224.9,66.8c-150.2,5.5-293.1-15.4-319.2-46.7    c-26-31.3,74.7-61.2,224.9-66.8C2418.3,1983.5,2561.2,2004.4,2587.3,2035.8z" opacity=".556" class="color030611 svgShape"></path><path fill="#110305" d="M2580.5,2036c25.4,30.5-72.8,59.7-219.3,65.1s-285.8-15-311.2-45.5c-25.4-30.5,72.8-59.7,219.3-65.1    C2415.8,1985.1,2555.1,2005.5,2580.5,2036z" opacity=".593" class="color030611 svgShape"></path><path fill="#110305" d="M2573.7,2036.3c24.7,29.8-71,58.2-213.7,63.4c-142.8,5.3-278.5-14.6-303.3-44.4    c-24.7-29.8,71-58.2,213.7-63.4C2413.2,1986.6,2549,2006.5,2573.7,2036.3z" opacity=".63" class="color030611 svgShape"></path><path fill="#110305" d="M2566.9,2036.5c24.1,29-69.1,56.6-208.1,61.8c-139,5.1-271.2-14.2-295.3-43.2c-24.1-29,69.1-56.6,208.1-61.8    C2410.6,1988.2,2542.9,2007.5,2566.9,2036.5z" opacity=".667" class="color030611 svgShape"></path><path fill="#110305" d="M2560.2,2036.8c23.4,28.2-67.2,55.1-202.5,60.1c-135.3,5-263.9-13.8-287.4-42    c-23.4-28.2,67.2-55.1,202.5-60.1S2536.7,2008.6,2560.2,2036.8z" opacity=".704" class="color030611 svgShape"></path><path fill="#110305" d="M2553.4,2037c22.8,27.4-65.4,53.6-196.9,58.4c-131.5,4.9-256.6-13.5-279.4-40.9    c-22.8-27.4,65.4-53.6,196.9-58.4S2530.6,2009.6,2553.4,2037z" opacity=".741" class="color030611 svgShape"></path><path fill="#110305" d="M2546.6,2037.3c22.1,26.6-63.5,52.1-191.3,56.8c-127.8,4.7-249.3-13.1-271.5-39.7    c-22.1-26.6,63.5-52.1,191.3-56.8C2402.9,1992.8,2524.5,2010.6,2546.6,2037.3z" opacity=".778" class="color030611 svgShape"></path><path fill="#110305" d="M2539.8,2037.5c21.5,25.9-61.7,50.5-185.7,55.1c-124.1,4.6-242-12.7-263.5-38.6    c-21.5-25.9,61.7-50.5,185.7-55.1C2400.4,1994.4,2518.4,2011.6,2539.8,2037.5z" opacity=".815" class="color030611 svgShape"></path><path fill="#110305" d="M2533.1,2037.8c20.8,25.1-59.8,49-180.1,53.5c-120.3,4.4-234.7-12.3-255.6-37.4    c-20.8-25.1,59.8-49,180.1-53.5C2397.8,1995.9,2512.2,2012.7,2533.1,2037.8z" opacity=".852" class="color030611 svgShape"></path><path fill="#110305" d="M2526.3,2038c20.2,24.3-57.9,47.5-174.5,51.8c-116.6,4.3-227.5-11.9-247.6-36.2    c-20.2-24.3,57.9-47.5,174.5-51.8S2506.1,2013.7,2526.3,2038z" opacity=".889" class="color030611 svgShape"></path><path fill="#110305" d="M2519.5,2038.3c19.5,23.5-56.1,46-168.9,50.1c-112.8,4.2-220.2-11.5-239.7-35.1s56.1-46,168.9-50.1    C2392.7,1999,2500,2014.7,2519.5,2038.3z" opacity=".926" class="color030611 svgShape"></path><path fill="#110305" d="M2512.7,2038.5c18.9,22.7-54.2,44.4-163.3,48.5s-212.9-11.2-231.7-33.9c-18.9-22.7,54.2-44.4,163.3-48.5    S2493.9,2015.8,2512.7,2038.5z" opacity=".963" class="color030611 svgShape"></path><path fill="#110305" d="M2506,2038.8c18.2,22-52.4,42.9-157.7,46.8s-205.6-10.8-223.8-32.7c-18.2-22,52.4-42.9,157.7-46.8    C2387.5,2002.1,2487.7,2016.8,2506,2038.8z" class="color030611 svgShape"></path></g><linearGradient id="a" x1="1574.882" x2="1574.882" y1="780.684" y2="1940.339" gradientUnits="userSpaceOnUse"><stop offset="0" stop-color="#994654" class="stopColor465399 svgShape"></stop><stop offset=".995" stop-color="#c4223d" class="stopColor22a5c4 svgShape"></stop></linearGradient><path fill="url(#a)" d="M1143.9,1906.7l0-1072.9c0-23.9,19.4-43.4,43.4-43.4l775.3,0c23.9,0,43.4,19.4,43.4,43.4l0,1072.9    c0,23.9-19.4,43.4-43.4,43.4l-775.3,0C1163.3,1950.1,1143.9,1930.7,1143.9,1906.7z"></path><linearGradient id="b" x1="1574.882" x2="1574.882" y1="1093.497" y2="1677.145" gradientUnits="userSpaceOnUse"><stop offset="0" stop-color="#ebf9eb" class="stopColorebf0f9 svgShape"></stop><stop offset=".995" stop-color="#ffffff" class="stopColorffffff svgShape"></stop></linearGradient><path fill="url(#b)" d="M1986,859.5l0,1068.2l-822.2,0l0-1068.2c0-25.8,20.9-46.6,46.6-46.6l728.9,0    C1965.1,812.8,1986,833.7,1986,859.5z"></path><linearGradient id="c" x1="1961.145" x2="1378.333" y1="718.63" y2="985.506" gradientUnits="userSpaceOnUse"><stop offset="0" stop-color="#994654" class="stopColor465399 svgShape"></stop><stop offset=".995" stop-color="#c4223d" class="stopColor22a5c4 svgShape"></stop></linearGradient><path fill="url(#c)" d="M1986,844v123l-822.2,0V844c0-17.2,14-31.2,31.2-31.2l759.8,0C1972,812.8,1986,826.8,1986,844z"></path><linearGradient id="d" x1="1873.913" x2="1411.172" y1="909.732" y2="1121.627" gradientUnits="userSpaceOnUse"><stop offset="0" stop-color="#994654" class="stopColor465399 svgShape"></stop><stop offset=".995" stop-color="#c4223d" class="stopColor22a5c4 svgShape"></stop></linearGradient><rect width="682.7" height="37.8" x="1223.9" y="1032.2" fill="url(#d)"></rect><linearGradient id="e" x1="1873.913" x2="1411.172" y1="1267.155" y2="1479.05" gradientUnits="userSpaceOnUse"><stop offset="0" stop-color="#994654" class="stopColor465399 svgShape"></stop><stop offset=".995" stop-color="#c4223d" class="stopColor22a5c4 svgShape"></stop></linearGradient><rect width="682.7" height="37.8" x="1223.9" y="1389.6" fill="url(#e)"></rect><linearGradient id="f" x1="1365.134" x2="1365.134" y1="1119.202" y2="1136.486" gradientUnits="userSpaceOnUse"><stop offset="0" stop-color="#ffffff" class="stopColorffffff svgShape"></stop><stop offset="1" stop-color="#81cc81" class="stopColor81a1cc svgShape"></stop></linearGradient><path fill="url(#f)" d="M1465.8,1134.3l-201.4,0c-0.3,0-0.6-0.3-0.6-0.6V1120c0-0.3,0.3-0.6,0.6-0.6l201.4,0c0.3,0,0.6,0.3,0.6,0.6    v13.7C1466.4,1134,1466.2,1134.3,1465.8,1134.3z"></path><linearGradient id="g" x1="1791.246" x2="1791.246" y1="1119.203" y2="1136.486" gradientUnits="userSpaceOnUse"><stop offset="0" stop-color="#ffffff" class="stopColorffffff svgShape"></stop><stop offset="1" stop-color="#81cc81" class="stopColor81a1cc svgShape"></stop></linearGradient><path fill="url(#g)" d="M1867.8,1134.3h-153.2c-0.3,0-0.6-0.3-0.6-0.6V1120c0-0.3,0.3-0.6,0.6-0.6l153.2,0c0.3,0,0.6,0.3,0.6,0.6    v13.7C1868.4,1134,1868.2,1134.3,1867.8,1134.3z"></path><linearGradient id="h" x1="1791.246" x2="1791.246" y1="1169.419" y2="1186.703" gradientUnits="userSpaceOnUse"><stop offset="0" stop-color="#ffffff" class="stopColorffffff svgShape"></stop><stop offset="1" stop-color="#81cc81" class="stopColor81a1cc svgShape"></stop></linearGradient><path fill="url(#h)" d="M1867.8,1184.5l-153.2,0c-0.3,0-0.6-0.3-0.6-0.6v-13.7c0-0.3,0.3-0.6,0.6-0.6l153.2,0c0.3,0,0.6,0.3,0.6,0.6    v13.7C1868.4,1184.3,1868.2,1184.5,1867.8,1184.5z"></path><linearGradient id="i" x1="1791.246" x2="1791.246" y1="1219.636" y2="1236.919" gradientUnits="userSpaceOnUse"><stop offset="0" stop-color="#ffffff" class="stopColorffffff svgShape"></stop><stop offset="1" stop-color="#81cc81" class="stopColor81a1cc svgShape"></stop></linearGradient><path fill="url(#i)" d="M1867.8,1234.7h-153.2c-0.3,0-0.6-0.3-0.6-0.6v-13.7c0-0.3,0.3-0.6,0.6-0.6l153.2,0c0.3,0,0.6,0.3,0.6,0.6    v13.7C1868.4,1234.5,1868.2,1234.7,1867.8,1234.7z"></path><linearGradient id="j" x1="1743.154" x2="1743.154" y1="1525.509" y2="1542.793" gradientUnits="userSpaceOnUse"><stop offset="0" stop-color="#ffffff" class="stopColorffffff svgShape"></stop><stop offset="1" stop-color="#81cc81" class="stopColor81a1cc svgShape"></stop></linearGradient><path fill="url(#j)" d="M1819.7,1540.6l-153.2,0c-0.3,0-0.6-0.3-0.6-0.6v-13.7c0-0.3,0.3-0.6,0.6-0.6l153.2,0c0.3,0,0.6,0.3,0.6,0.6    v13.7C1820.3,1540.4,1820.1,1540.6,1819.7,1540.6z"></path><linearGradient id="k" x1="1743.154" x2="1743.154" y1="1575.726" y2="1593.009" gradientUnits="userSpaceOnUse"><stop offset="0" stop-color="#ffffff" class="stopColorffffff svgShape"></stop><stop offset="1" stop-color="#81cc81" class="stopColor81a1cc svgShape"></stop></linearGradient><path fill="url(#k)" d="M1819.7,1590.8l-153.2,0c-0.3,0-0.6-0.3-0.6-0.6l0-13.7c0-0.3,0.3-0.6,0.6-0.6h153.2c0.3,0,0.6,0.3,0.6,0.6    v13.7C1820.3,1590.6,1820.1,1590.8,1819.7,1590.8z"></path><linearGradient id="l" x1="1743.154" x2="1743.154" y1="1625.943" y2="1643.226" gradientUnits="userSpaceOnUse"><stop offset="0" stop-color="#ffffff" class="stopColorffffff svgShape"></stop><stop offset="1" stop-color="#81cc81" class="stopColor81a1cc svgShape"></stop></linearGradient><path fill="url(#l)" d="M1819.7,1641.1l-153.2,0c-0.3,0-0.6-0.3-0.6-0.6v-13.7c0-0.3,0.3-0.6,0.6-0.6l153.2,0c0.3,0,0.6,0.3,0.6,0.6    v13.7C1820.3,1640.8,1820.1,1641.1,1819.7,1641.1z"></path><linearGradient id="m" x1="1743.154" x2="1743.154" y1="1764.537" y2="1781.82" gradientUnits="userSpaceOnUse"><stop offset="0" stop-color="#ffffff" class="stopColorffffff svgShape"></stop><stop offset="1" stop-color="#81cc81" class="stopColor81a1cc svgShape"></stop></linearGradient><path fill="url(#m)" d="M1819.7,1779.6l-153.2,0c-0.3,0-0.6-0.3-0.6-0.6v-13.7c0-0.3,0.3-0.6,0.6-0.6h153.2c0.3,0,0.6,0.3,0.6,0.6    v13.7C1820.3,1779.4,1820.1,1779.6,1819.7,1779.6z"></path><linearGradient id="n" x1="1743.154" x2="1743.154" y1="1831.548" y2="1848.832" gradientUnits="userSpaceOnUse"><stop offset="0" stop-color="#ffffff" class="stopColorffffff svgShape"></stop><stop offset="1" stop-color="#81cc81" class="stopColor81a1cc svgShape"></stop></linearGradient><path fill="url(#n)" d="M1819.7,1846.7h-153.2c-0.3,0-0.6-0.3-0.6-0.6v-13.7c0-0.3,0.3-0.6,0.6-0.6h153.2c0.3,0,0.6,0.3,0.6,0.6    v13.7C1820.3,1846.4,1820.1,1846.7,1819.7,1846.7z"></path><linearGradient id="o" x1="1791.246" x2="1791.246" y1="1269.853" y2="1287.136" gradientUnits="userSpaceOnUse"><stop offset="0" stop-color="#ffffff" class="stopColorffffff svgShape"></stop><stop offset="1" stop-color="#81cc81" class="stopColor81a1cc svgShape"></stop></linearGradient><path fill="url(#o)" d="M1867.8,1285h-153.2c-0.3,0-0.6-0.3-0.6-0.6v-13.7c0-0.3,0.3-0.6,0.6-0.6h153.2c0.3,0,0.6,0.3,0.6,0.6v13.7    C1868.4,1284.7,1868.2,1285,1867.8,1285z"></path><linearGradient id="p" x1="1791.246" x2="1791.246" y1="1320.07" y2="1337.353" gradientUnits="userSpaceOnUse"><stop offset="0" stop-color="#ffffff" class="stopColorffffff svgShape"></stop><stop offset="1" stop-color="#81cc81" class="stopColor81a1cc svgShape"></stop></linearGradient><path fill="url(#p)" d="M1867.8,1335.2h-153.2c-0.3,0-0.6-0.3-0.6-0.6v-13.7c0-0.3,0.3-0.6,0.6-0.6l153.2,0c0.3,0,0.6,0.3,0.6,0.6    v13.7C1868.4,1334.9,1868.2,1335.2,1867.8,1335.2z"></path><linearGradient id="q" x1="1398.877" x2="1398.877" y1="1169.419" y2="1186.702" gradientUnits="userSpaceOnUse"><stop offset="0" stop-color="#ffffff" class="stopColorffffff svgShape"></stop><stop offset="1" stop-color="#81cc81" class="stopColor81a1cc svgShape"></stop></linearGradient><path fill="url(#q)" d="M1533.3,1184.5h-268.9c-0.3,0-0.6-0.3-0.6-0.6v-13.7c0-0.3,0.3-0.6,0.6-0.6l268.9,0c0.3,0,0.6,0.3,0.6,0.6    l0,13.7C1533.9,1184.3,1533.7,1184.5,1533.3,1184.5z"></path><linearGradient id="r" x1="1396.46" x2="1396.46" y1="1550.618" y2="1567.901" gradientUnits="userSpaceOnUse"><stop offset="0" stop-color="#ffffff" class="stopColorffffff svgShape"></stop><stop offset="1" stop-color="#81cc81" class="stopColor81a1cc svgShape"></stop></linearGradient><path fill="url(#r)" d="M1497.2,1565.7h-201.4c-0.3,0-0.6-0.3-0.6-0.6v-13.7c0-0.3,0.3-0.6,0.6-0.6h201.4c0.3,0,0.6,0.3,0.6,0.6    v13.7C1497.8,1565.5,1497.5,1565.7,1497.2,1565.7z"></path><linearGradient id="s" x1="1430.203" x2="1430.203" y1="1600.834" y2="1618.118" gradientUnits="userSpaceOnUse"><stop offset="0" stop-color="#ffffff" class="stopColorffffff svgShape"></stop><stop offset="1" stop-color="#81cc81" class="stopColor81a1cc svgShape"></stop></linearGradient><path fill="url(#s)" d="M1564.7,1615.9l-268.9,0c-0.3,0-0.6-0.3-0.6-0.6v-13.7c0-0.3,0.3-0.6,0.6-0.6h268.9c0.3,0,0.6,0.3,0.6,0.6    v13.7C1565.2,1615.7,1565,1615.9,1564.7,1615.9z"></path><linearGradient id="t" x1="1349.441" x2="1349.441" y1="1219.636" y2="1236.919" gradientUnits="userSpaceOnUse"><stop offset="0" stop-color="#ffffff" class="stopColorffffff svgShape"></stop><stop offset="1" stop-color="#81cc81" class="stopColor81a1cc svgShape"></stop></linearGradient><path fill="url(#t)" d="M1434.5,1234.7l-170,0c-0.3,0-0.6-0.3-0.6-0.6v-13.7c0-0.3,0.3-0.6,0.6-0.6h170c0.3,0,0.6,0.3,0.6,0.6v13.7    C1435,1234.5,1434.8,1234.7,1434.5,1234.7z"></path><linearGradient id="u" x1="1382.62" x2="1382.62" y1="1269.852" y2="1287.136" gradientUnits="userSpaceOnUse"><stop offset="0" stop-color="#ffffff" class="stopColorffffff svgShape"></stop><stop offset="1" stop-color="#81cc81" class="stopColor81a1cc svgShape"></stop></linearGradient><path fill="url(#u)" d="M1500.8,1285l-236.4,0c-0.3,0-0.6-0.3-0.6-0.6v-13.7c0-0.3,0.3-0.6,0.6-0.6l236.4,0c0.3,0,0.6,0.3,0.6,0.6    v13.7C1501.4,1284.7,1501.1,1285,1500.8,1285z"></path><rect width="604.6" height="176.6" x="1263.8" y="1495.1" fill="none" stroke="#9fc19f" stroke-miterlimit="10" stroke-width="3" class="colorStroke9fadc1 svgStroke"></rect><path fill="#fbfffb" d="M1242.4 879.5v43.9h-5.7v-43.9H1242.4zM1258.8 923.5v-43.9h6.2l14.1 22.2c3.3 5.2 5.8 9.8 7.9 14.3l.1-.1c-.5-5.9-.6-11.2-.6-18.1v-18.4h5.3l0 43.9h-5.7l-14-22.3c-3.1-4.9-6-9.9-8.2-14.7l-.2.1c.3 5.5.5 10.8.5 18.1v18.8H1258.8zM1317.9 923.5l-14.3-43.9h6.1l6.8 21.6c1.9 5.9 3.5 11.3 4.7 16.4h.1c1.2-5.1 3.1-10.6 5-16.4l7.4-21.7h6.1l-15.7 43.9H1317.9zM1388.7 901c0 15.1-9.2 23.1-20.4 23.1-11.6 0-19.7-9-19.7-22.3 0-14 8.7-23.1 20.4-23.1C1381 878.8 1388.7 888 1388.7 901zM1354.6 901.8c0 9.4 5.1 17.8 14 17.8 9 0 14.1-8.3 14.1-18.2 0-8.7-4.6-17.9-14-17.9C1359.3 883.4 1354.6 892.1 1354.6 901.8zM1408.3 879.5v43.9h-5.7v-43.9L1408.3 879.5zM1455.4 922c-2.1 1-6.3 2.1-11.6 2.1-12.4 0-21.7-7.8-21.7-22.2 0-13.8 9.3-23.1 22.9-23.1 5.5 0 8.9 1.2 10.4 2l-1.4 4.6c-2.2-1-5.2-1.8-8.9-1.8-10.3 0-17.1 6.6-17.1 18.1 0 10.8 6.2 17.7 16.9 17.7 3.5 0 7-.7 9.3-1.8L1455.4 922zM1491.8 902.9h-17.1v15.8h19v4.8H1469v-43.9h23.7v4.8h-18.1v13.9h17.1V902.9z" class="colorfffffb svgShape"></path><g opacity=".15" fill="#000000" class="color000000 svgShape"><path fill="#110305" d="M2457.6,1649.6c34.4,219.7-91.5,423.4-281.2,455s-371.3-120.8-405.6-340.5c-34.4-219.7,91.5-423.4,281.2-455     C2241.6,1277.5,2423.2,1429.9,2457.6,1649.6z" opacity="0" class="color030611 svgShape"></path><path fill="#110305" d="M2451.4,1650.6c33.7,215.7-89.9,415.7-276.1,446.8c-186.2,31-364.5-118.6-398.3-334.3     c-33.7-215.7,89.9-415.7,276.1-446.8S2417.6,1434.9,2451.4,1650.6z" opacity=".037" class="color030611 svgShape"></path><path fill="#110305" d="M2445.1,1651.7c33.1,211.7-88.2,408-271,438.5c-182.8,30.5-357.8-116.4-390.9-328.1     c-33.1-211.7,88.2-408,271-438.5C2237,1293,2412,1440,2445.1,1651.7z" opacity=".074" class="color030611 svgShape"></path><path fill="#110305" d="M2438.9,1652.7c32.5,207.7-86.6,400.4-265.9,430.3c-179.4,29.9-351.1-114.3-383.6-322     c-32.5-207.7,86.6-400.4,265.9-430.3C2234.7,1300.8,2406.4,1445,2438.9,1652.7z" opacity=".111" class="color030611 svgShape"></path><path fill="#110305" d="M2432.7,1653.7c31.9,203.7-84.9,392.7-260.8,422c-175.9,29.3-344.4-112.1-376.2-315.8     c-31.9-203.7,84.9-392.7,260.8-422C2232.4,1308.6,2400.8,1450,2432.7,1653.7z" opacity=".148" class="color030611 svgShape"></path><path fill="#110305" d="M2426.5,1654.8c31.2,199.8-83.3,385-255.7,413.8c-172.5,28.8-337.6-109.9-368.9-309.6     c-31.2-199.8,83.3-385,255.7-413.8C2230.1,1316.4,2395.2,1455,2426.5,1654.8z" opacity=".185" class="color030611 svgShape"></path><path fill="#110305" d="M2420.2,1655.8c30.6,195.8-81.6,377.3-250.6,405.5c-169,28.2-330.9-107.7-361.5-303.5     c-30.6-195.8,81.6-377.3,250.6-405.5C2227.8,1324.2,2389.6,1460,2420.2,1655.8z" opacity=".222" class="color030611 svgShape"></path><path fill="#110305" d="M2414,1656.9c30,191.8-79.9,369.7-245.5,397.3c-165.6,27.6-324.2-105.5-354.2-297.3     c-30-191.8,79.9-369.7,245.5-397.3S2384,1465.1,2414,1656.9z" opacity=".259" class="color030611 svgShape"></path><path fill="#110305" d="M2407.8,1657.9c29.4,187.8-78.3,362-240.4,389c-162.2,27-317.4-103.3-346.8-291.1     c-29.4-187.8,78.3-362,240.4-389C2223.1,1339.7,2378.4,1470.1,2407.8,1657.9z" opacity=".296" class="color030611 svgShape"></path><path fill="#110305" d="M2401.6,1658.9c28.8,183.8-76.6,354.3-235.3,380.8c-158.7,26.5-310.7-101.1-339.5-284.9     c-28.8-183.8,76.6-354.3,235.3-380.8S2372.8,1475.1,2401.6,1658.9z" opacity=".333" class="color030611 svgShape"></path><path fill="#110305" d="M2395.3,1660c28.1,179.8-75,346.6-230.2,372.5c-155.3,25.9-304-98.9-332.1-278.8     c-28.1-179.8,75-346.6,230.2-372.5C2218.5,1355.3,2367.2,1480.1,2395.3,1660z" opacity=".37" class="color030611 svgShape"></path><path fill="#110305" d="M2389.1,1661c27.5,175.9-73.3,339-225.1,364.3c-151.8,25.3-297.2-96.7-324.7-272.6     c-27.5-175.9,73.3-339,225.1-364.3S2361.6,1485.1,2389.1,1661z" opacity=".407" class="color030611 svgShape"></path><path fill="#110305" d="M2382.9,1662c26.9,171.9-71.6,331.3-220,356s-290.5-94.5-317.4-266.4c-26.9-171.9,71.6-331.3,220-356     C2213.9,1370.9,2356,1490.2,2382.9,1662z" opacity=".444" class="color030611 svgShape"></path><path fill="#110305" d="M2376.7,1663.1c26.3,167.9-70,323.6-214.9,347.8c-145,24.2-283.8-92.3-310-260.3s70-323.6,214.9-347.8     S2350.4,1495.2,2376.7,1663.1z" opacity=".481" class="color030611 svgShape"></path><path fill="#110305" d="M2370.4,1664.1c25.6,163.9-68.3,315.9-209.8,339.5s-277.1-90.2-302.7-254.1s68.3-315.9,209.8-339.5     C2209.3,1386.5,2344.8,1500.2,2370.4,1664.1z" opacity=".518" class="color030611 svgShape"></path><path fill="#110305" d="M2364.2,1665.2c25,159.9-66.7,308.3-204.7,331.3c-138.1,23-270.3-88-295.3-247.9s66.7-308.3,204.7-331.3     C2207,1394.2,2339.2,1505.2,2364.2,1665.2z" opacity=".556" class="color030611 svgShape"></path><path fill="#110305" d="M2358,1666.2c24.4,156-65,300.6-199.7,323c-134.7,22.4-263.6-85.8-288-241.7c-24.4-156,65-300.6,199.7-323     C2204.7,1402,2333.6,1510.2,2358,1666.2z" opacity=".593" class="color030611 svgShape"></path><path fill="#110305" d="M2351.8,1667.2c23.8,152-63.3,292.9-194.6,314.8c-131.2,21.9-256.9-83.6-280.6-235.6     c-23.8-152,63.3-292.9,194.6-314.8C2202.3,1409.8,2328,1515.3,2351.8,1667.2z" opacity=".63" class="color030611 svgShape"></path><path fill="#110305" d="M2345.5,1668.3c23.1,148-61.7,285.2-189.5,306.5c-127.8,21.3-250.1-81.4-273.3-229.4     c-23.1-148,61.7-285.2,189.5-306.5S2322.4,1520.3,2345.5,1668.3z" opacity=".667" class="color030611 svgShape"></path><path fill="#110305" d="M2339.3,1669.3c22.5,144-60,277.6-184.4,298.3s-243.4-79.2-265.9-223.2c-22.5-144,60-277.6,184.4-298.3     S2316.8,1525.3,2339.3,1669.3z" opacity=".704" class="color030611 svgShape"></path><path fill="#110305" d="M2333.1,1670.4c21.9,140-58.4,269.9-179.3,290c-120.9,20.2-236.7-77-258.6-217     c-21.9-140,58.4-269.9,179.3-290C2195.4,1433.2,2311.2,1530.3,2333.1,1670.4z" opacity=".741" class="color030611 svgShape"></path><path fill="#110305" d="M2326.9,1671.4c21.3,136-56.7,262.2-174.2,281.8c-117.5,19.6-229.9-74.8-251.2-210.9     c-21.3-136,56.7-262.2,174.2-281.8C2193.1,1440.9,2305.6,1535.4,2326.9,1671.4z" opacity=".778" class="color030611 svgShape"></path><path fill="#110305" d="M2320.6,1672.4c20.7,132.1-55,254.5-169.1,273.5c-114,19-223.2-72.6-243.9-204.7     c-20.7-132.1,55-254.5,169.1-273.5C2190.8,1448.7,2300,1540.4,2320.6,1672.4z" opacity=".815" class="color030611 svgShape"></path><path fill="#110305" d="M2314.4,1673.5c20,128.1-53.4,246.9-164,265.3c-110.6,18.4-216.5-70.4-236.5-198.5     c-20-128.1,53.4-246.9,164-265.3C2188.5,1456.5,2294.4,1545.4,2314.4,1673.5z" opacity=".852" class="color030611 svgShape"></path><path fill="#110305" d="M2308.2,1674.5c19.4,124.1-51.7,239.2-158.9,257c-107.2,17.9-209.7-68.3-229.2-192.4     c-19.4-124.1,51.7-239.2,158.9-257C2186.2,1464.3,2288.8,1550.4,2308.2,1674.5z" opacity=".889" class="color030611 svgShape"></path><path fill="#110305" d="M2301.9,1675.5c18.8,120.1-50.1,231.5-153.8,248.8c-103.7,17.3-203-66.1-221.8-186.2     c-18.8-120.1,50.1-231.5,153.8-248.8C2183.9,1472.1,2283.2,1555.4,2301.9,1675.5z" opacity=".926" class="color030611 svgShape"></path><path fill="#110305" d="M2295.7,1676.6c18.2,116.1-48.4,223.8-148.7,240.5c-100.3,16.7-196.3-63.9-214.4-180     c-18.2-116.1,48.4-223.8,148.7-240.5C2181.5,1479.9,2277.6,1560.5,2295.7,1676.6z" opacity=".963" class="color030611 svgShape"></path><path fill="#110305" d="M2289.5,1677.6c17.5,112.2-46.7,216.2-143.6,232.3c-96.8,16.1-189.6-61.7-207.1-173.8     c-17.5-112.2,46.7-216.2,143.6-232.3C2179.2,1487.6,2272,1565.5,2289.5,1677.6z" class="color030611 svgShape"></path></g><linearGradient id="v" x1="2216.857" x2="2348.376" y1="1410.24" y2="1715.463" gradientUnits="userSpaceOnUse"><stop offset="0" stop-color="#f7a400" class="stopColorfdae6e svgShape"></stop><stop offset=".995" stop-color="#b93b50" class="stopColorfe5a71 svgShape"></stop></linearGradient><polygon fill="url(#v)" points="1952.6 1583.5 2290.5 1360 2630.4 1583.5 2291.5 2007.3"></polygon><linearGradient id="w" x1="2290.464" x2="2290.464" y1="1272.668" y2="1534.273" gradientUnits="userSpaceOnUse"><stop offset="0" stop-color="#ebf9eb" class="stopColorebf0f9 svgShape"></stop><stop offset=".995" stop-color="#ffffff" class="stopColorffffff svgShape"></stop></linearGradient><path fill="url(#w)" d="M2601.2,1977.9l-621.4,0c-1.2,0-2.2-1-2.2-2.2l0-639.4c0-1.2,1-2.2,2.2-2.2l621.4,0c1.2,0,2.2,1,2.2,2.2     l0,639.4C2603.4,1976.9,2602.4,1977.9,2601.2,1977.9z"></path><linearGradient id="x" x1="2153.335" x2="2153.335" y1="1428.741" y2="1449.498" gradientUnits="userSpaceOnUse"><stop offset="0" stop-color="#fbfffb" class="stopColorfbffff svgShape"></stop><stop offset="1" stop-color="#bce6bc" class="stopColorbcc2e6 svgShape"></stop></linearGradient><path fill="url(#x)" d="M2250,1450.7l-193.3,0c-0.3,0-0.6-0.3-0.6-0.6v-20.8c0-0.3,0.3-0.6,0.6-0.6l193.3,0c0.3,0,0.6,0.3,0.6,0.6      v20.8C2250.6,1450.5,2250.3,1450.7,2250,1450.7z"></path><linearGradient id="y" x1="2290.464" x2="2290.464" y1="1483.652" y2="1504.409" gradientUnits="userSpaceOnUse"><stop offset="0" stop-color="#fbfffb" class="stopColorfbffff svgShape"></stop><stop offset="1" stop-color="#bce6bc" class="stopColorbcc2e6 svgShape"></stop></linearGradient><path fill="url(#y)" d="M2524.3,1505.6l-467.6,0c-0.3,0-0.6-0.3-0.6-0.6v-20.8c0-0.3,0.3-0.6,0.6-0.6l467.6,0      c0.3,0,0.6,0.3,0.6,0.6v20.8C2524.8,1505.4,2524.6,1505.6,2524.3,1505.6z"></path><linearGradient id="z" x1="2290.464" x2="2290.464" y1="1538.563" y2="1559.32" gradientUnits="userSpaceOnUse"><stop offset="0" stop-color="#fbfffb" class="stopColorfbffff svgShape"></stop><stop offset="1" stop-color="#bce6bc" class="stopColorbcc2e6 svgShape"></stop></linearGradient><path fill="url(#z)" d="M2524.3,1560.6l-467.6,0c-0.3,0-0.6-0.3-0.6-0.6v-20.8c0-0.3,0.3-0.6,0.6-0.6l467.6,0      c0.3,0,0.6,0.3,0.6,0.6v20.8C2524.8,1560.3,2524.6,1560.6,2524.3,1560.6z"></path><linearGradient id="A" x1="2290.464" x2="2290.464" y1="1593.473" y2="1614.23" gradientUnits="userSpaceOnUse"><stop offset="0" stop-color="#fbfffb" class="stopColorfbffff svgShape"></stop><stop offset="1" stop-color="#bce6bc" class="stopColorbcc2e6 svgShape"></stop></linearGradient><path fill="url(#A)" d="M2524.3,1615.5l-467.6,0c-0.3,0-0.6-0.3-0.6-0.6v-20.8c0-0.3,0.3-0.6,0.6-0.6l467.6,0      c0.3,0,0.6,0.3,0.6,0.6v20.8C2524.8,1615.2,2524.6,1615.5,2524.3,1615.5z"></path><linearGradient id="B" x1="2290.464" x2="2290.464" y1="1648.384" y2="1669.141" gradientUnits="userSpaceOnUse"><stop offset="0" stop-color="#fbfffb" class="stopColorfbffff svgShape"></stop><stop offset="1" stop-color="#bce6bc" class="stopColorbcc2e6 svgShape"></stop></linearGradient><path fill="url(#B)" d="M2524.3,1670.4l-467.6,0c-0.3,0-0.6-0.3-0.6-0.6V1649c0-0.3,0.3-0.6,0.6-0.6l467.6,0      c0.3,0,0.6,0.3,0.6,0.6v20.8C2524.8,1670.1,2524.6,1670.4,2524.3,1670.4z"></path><linearGradient id="C" x1="2290.464" x2="2290.464" y1="1729.449" y2="1750.205" gradientUnits="userSpaceOnUse"><stop offset="0" stop-color="#fbfffb" class="stopColorfbffff svgShape"></stop><stop offset="1" stop-color="#bce6bc" class="stopColorbcc2e6 svgShape"></stop></linearGradient><path fill="url(#C)" d="M2524.3,1751.4l-467.6,0c-0.3,0-0.6-0.3-0.6-0.6V1730c0-0.3,0.3-0.6,0.6-0.6l467.6,0      c0.3,0,0.6,0.3,0.6,0.6v20.8C2524.8,1751.2,2524.6,1751.4,2524.3,1751.4z"></path><linearGradient id="D" x1="2290.464" x2="2290.464" y1="1784.359" y2="1805.116" gradientUnits="userSpaceOnUse"><stop offset="0" stop-color="#fbfffb" class="stopColorfbffff svgShape"></stop><stop offset="1" stop-color="#bce6bc" class="stopColorbcc2e6 svgShape"></stop></linearGradient><path fill="url(#D)" d="M2524.3,1806.4l-467.6,0c-0.3,0-0.6-0.3-0.6-0.6l0-20.8c0-0.3,0.3-0.6,0.6-0.6l467.6,0      c0.3,0,0.6,0.3,0.6,0.6v20.8C2524.8,1806.1,2524.6,1806.4,2524.3,1806.4z"></path><linearGradient id="E" x1="2290.464" x2="2290.464" y1="1839.27" y2="1860.027" gradientUnits="userSpaceOnUse"><stop offset="0" stop-color="#fbfffb" class="stopColorfbffff svgShape"></stop><stop offset="1" stop-color="#bce6bc" class="stopColorbcc2e6 svgShape"></stop></linearGradient><path fill="url(#E)" d="M2524.3,1861.3l-467.6,0c-0.3,0-0.6-0.3-0.6-0.6v-20.8c0-0.3,0.3-0.6,0.6-0.6l467.6,0      c0.3,0,0.6,0.3,0.6,0.6v20.8C2524.8,1861,2524.6,1861.3,2524.3,1861.3z"></path><linearGradient id="F" x1="2091.838" x2="2237.204" y1="1543.902" y2="1881.26" gradientUnits="userSpaceOnUse"><stop offset="0" stop-color="#f7a400" class="stopColorfdae6e svgShape"></stop><stop offset=".995" stop-color="#b93b50" class="stopColorfe5a71 svgShape"></stop></linearGradient><polygon fill="url(#F)" points="1952.6 1583.5 2630.4 2007.3 1952.6 2007.3"></polygon><linearGradient id="G" x1="2309.731" x2="2467.359" y1="1823.411" y2="2065.917" gradientUnits="userSpaceOnUse"><stop offset="0" stop-color="#f7a400" class="stopColorfdae6e svgShape"></stop><stop offset=".995" stop-color="#b93b50" class="stopColorfe5a71 svgShape"></stop></linearGradient><polygon fill="url(#G)" points="2630.4 1583.5 1952.6 2007.3 2630.4 2007.3"></polygon><g fill="#000000" class="color000000 svgShape"><linearGradient id="H" x1="772.41" x2="772.41" y1="900.134" y2="1823.938" gradientUnits="userSpaceOnUse"><stop offset="0" stop-color="#f3f8f3" class="stopColorecf0f9 svgShape"></stop><stop offset="1" stop-color="#bce6bc" class="stopColorbcc2e6 svgShape"></stop></linearGradient><path fill="url(#H)" d="M988,1879.1l-431.2,0c-16,0-29-13-29-29v-921c0-16,13-29,29-29l431.2,0c16,0,29,13,29,29l0,921     C1017,1866.1,1004,1879.1,988,1879.1z"></path><path fill="#ffffff" d="M980.4,1860.7l-416,0c-12.3,0-22.4-10-22.4-22.4l0-859.6c0-12.4,10-22.4,22.4-22.4l416,0     c12.4,0,22.4,10,22.4,22.4v859.6C1002.8,1850.7,992.8,1860.7,980.4,1860.7z" class="colorffffff svgShape"></path><linearGradient id="I" x1="640.97" x2="903.85" y1="1144.983" y2="1144.983" gradientUnits="userSpaceOnUse"><stop offset="0" stop-color="#fbfffb" class="stopColorfbffff svgShape"></stop><stop offset="1" stop-color="#bce6bc" class="stopColorbcc2e6 svgShape"></stop></linearGradient><path fill="url(#I)" d="M772.3,1018.8c-34.2,0-65.4,12.7-88.8,33.3c-26.1,23.1-42.5,56.1-42.5,93c0,18.6,4.2,36.2,11.8,51.9     c19,40.4,59.4,69.2,107.3,73.5c4.2,0.4,8.1,0.7,12.3,0.7c72.6,0,131.6-56.4,131.6-126.1C903.9,1075.4,844.9,1018.8,772.3,1018.8z      M772.3,1223c-2.5,0-4.9-0.2-7.4-0.4h-0.2c-29.6-2.7-54.6-20.4-66.1-45.3v-0.2c-4.9-9.8-7.4-20.4-7.4-32     c0-22.9,10.2-43.3,26.4-57.5c14.3-12.9,33.8-20.6,54.8-20.6c45.1,0,81.4,35.1,81.4,78.1C853.7,1188.1,817.4,1223,772.3,1223z"></path><linearGradient id="J" x1="640.97" x2="717.499" y1="1124.564" y2="1124.564" gradientUnits="userSpaceOnUse"><stop offset="0" stop-color="#f7a400" class="stopColorfdae6e svgShape"></stop><stop offset=".995" stop-color="#b93b50" class="stopColorfe5a71 svgShape"></stop></linearGradient><path fill="url(#J)" d="M691.1,1145.1c0,11.5,2.5,22.2,7.4,32v0.2l-45.8,19.8c-7.6-15.8-11.8-33.3-11.8-51.9     c0-36.8,16.4-69.9,42.5-93l34,35.5C701.3,1101.8,691.1,1122.2,691.1,1145.1z"></path><linearGradient id="K" x1="652.761" x2="764.664" y1="1223.88" y2="1223.88" gradientUnits="userSpaceOnUse"><stop offset="0" stop-color="#c46272" class="stopColor628fc4 svgShape"></stop><stop offset="1" stop-color="#91414e" class="stopColor414791 svgShape"></stop></linearGradient><path fill="url(#K)" d="M764.7,1222.5l-4.6,47.9c-47.9-4.2-88.3-33.1-107.3-73.5l45.8-19.8C710.1,1202.1,735.1,1219.9,764.7,1222.5     z"></path><linearGradient id="L" x1="640.993" x2="640.993" y1="1523.184" y2="1749.962" gradientUnits="userSpaceOnUse"><stop offset="0" stop-color="#b75969" class="stopColor597cb7 svgShape"></stop><stop offset="1" stop-color="#bce6bc" class="stopColorbcc2e6 svgShape"></stop></linearGradient><rect width="43.8" height="122.1" x="619.1" y="1647.2" fill="url(#L)"></rect><linearGradient id="M" x1="706.702" x2="706.702" y1="1523.185" y2="1749.963" gradientUnits="userSpaceOnUse"><stop offset="0" stop-color="#b75969" class="stopColor597cb7 svgShape"></stop><stop offset="1" stop-color="#bce6bc" class="stopColorbcc2e6 svgShape"></stop></linearGradient><rect width="43.8" height="195.2" x="684.8" y="1574.1" fill="url(#M)"></rect><linearGradient id="N" x1="772.41" x2="772.41" y1="1523.185" y2="1749.963" gradientUnits="userSpaceOnUse"><stop offset="0" stop-color="#b75969" class="stopColor597cb7 svgShape"></stop><stop offset="1" stop-color="#bce6bc" class="stopColorbcc2e6 svgShape"></stop></linearGradient><rect width="43.8" height="265.8" x="750.5" y="1503.6" fill="url(#N)"></rect><linearGradient id="O" x1="838.119" x2="838.119" y1="1523.185" y2="1749.963" gradientUnits="userSpaceOnUse"><stop offset="0" stop-color="#b75969" class="stopColor597cb7 svgShape"></stop><stop offset="1" stop-color="#bce6bc" class="stopColorbcc2e6 svgShape"></stop></linearGradient><rect width="43.8" height="346.7" x="816.2" y="1422.6" fill="url(#O)"></rect><linearGradient id="P" x1="903.827" x2="903.827" y1="1523.185" y2="1749.965" gradientUnits="userSpaceOnUse"><stop offset="0" stop-color="#b75969" class="stopColor597cb7 svgShape"></stop><stop offset="1" stop-color="#bce6bc" class="stopColorbcc2e6 svgShape"></stop></linearGradient><rect width="43.8" height="214.8" x="881.9" y="1554.5" fill="url(#P)"></rect><g fill="#000000" class="color000000 svgShape"><linearGradient id="Q" x1="775.125" x2="775.125" y1="1391.988" y2="1780.86" gradientUnits="userSpaceOnUse"><stop offset="0" stop-color="#f3f8f3" class="stopColorecf0f9 svgShape"></stop><stop offset="1" stop-color="#bce6bc" class="stopColorbcc2e6 svgShape"></stop></linearGradient><path fill="url(#Q)" d="M956.7,1820.5l-363.1,0c-13.6,0-24.6-11-24.6-24.6v-398.4c0-13.6,11-24.6,24.6-24.6l363.1,0     c13.6,0,24.6,11,24.6,24.6l0,398.4C981.3,1809.4,970.2,1820.5,956.7,1820.5z M593.6,1380.2c-9.5,0-17.2,7.7-17.2,17.2v398.4     c0,9.5,7.7,17.2,17.2,17.2l363.1,0c9.5,0,17.2-7.7,17.2-17.2l0-398.4c0-9.5-7.7-17.2-17.2-17.2L593.6,1380.2z"></path></g></g><g fill="#000000" class="color000000 svgShape"><linearGradient id="R" x1="2041.709" x2="2422.481" y1="867.236" y2="418.85" gradientUnits="userSpaceOnUse"><stop offset="0" stop-color="#ebf9eb" class="stopColorebf0f9 svgShape"></stop><stop offset=".995" stop-color="#ffffff" class="stopColorffffff svgShape"></stop></linearGradient><path fill="url(#R)" d="M2564.9,760.5l-518.8,0c-1.2,0-2.2-1-2.2-2.2l0-403.5c0-1.2,1-2.2,2.2-2.2l518.8,0c1.2,0,2.2,1,2.2,2.2    l0,403.5C2567.1,759.5,2566.1,760.5,2564.9,760.5z"></path><linearGradient id="S" x1="2190.912" x2="2190.912" y1="424.695" y2="447.347" gradientUnits="userSpaceOnUse"><stop offset="0" stop-color="#fbfffb" class="stopColorfbffff svgShape"></stop><stop offset="1" stop-color="#bce6bc" class="stopColorbcc2e6 svgShape"></stop></linearGradient><path fill="url(#S)" d="M2271.6,448.7l-161.4,0c-0.3,0-0.6-0.3-0.6-0.6v-22.8c0-0.3,0.3-0.6,0.6-0.6h161.4c0.3,0,0.6,0.3,0.6,0.6     v22.8C2272.2,448.4,2271.9,448.7,2271.6,448.7z"></path><linearGradient id="T" x1="2305.545" x2="2305.545" y1="484.621" y2="507.274" gradientUnits="userSpaceOnUse"><stop offset="0" stop-color="#fbfffb" class="stopColorfbffff svgShape"></stop><stop offset="1" stop-color="#bce6bc" class="stopColorbcc2e6 svgShape"></stop></linearGradient><path fill="url(#T)" d="M2500.9,508.6l-390.7,0c-0.3,0-0.6-0.3-0.6-0.6v-22.8c0-0.3,0.3-0.6,0.6-0.6l390.7,0c0.3,0,0.6,0.3,0.6,0.6     V508C2501.5,508.4,2501.2,508.6,2500.9,508.6z"></path><linearGradient id="U" x1="2305.545" x2="2305.545" y1="544.548" y2="567.2" gradientUnits="userSpaceOnUse"><stop offset="0" stop-color="#fbfffb" class="stopColorfbffff svgShape"></stop><stop offset="1" stop-color="#bce6bc" class="stopColorbcc2e6 svgShape"></stop></linearGradient><path fill="url(#U)" d="M2500.9,568.6l-390.7,0c-0.3,0-0.6-0.3-0.6-0.6v-22.8c0-0.3,0.3-0.6,0.6-0.6l390.7,0c0.3,0,0.6,0.3,0.6,0.6     V568C2501.5,568.3,2501.2,568.6,2500.9,568.6z"></path><linearGradient id="V" x1="2305.545" x2="2305.545" y1="604.474" y2="627.127" gradientUnits="userSpaceOnUse"><stop offset="0" stop-color="#fbfffb" class="stopColorfbffff svgShape"></stop><stop offset="1" stop-color="#bce6bc" class="stopColorbcc2e6 svgShape"></stop></linearGradient><path fill="url(#V)" d="M2500.9,628.5l-390.7,0c-0.3,0-0.6-0.3-0.6-0.6v-22.8c0-0.3,0.3-0.6,0.6-0.6l390.7,0c0.3,0,0.6,0.3,0.6,0.6     v22.8C2501.5,628.2,2501.2,628.5,2500.9,628.5z"></path><linearGradient id="W" x1="2305.545" x2="2305.545" y1="664.401" y2="687.053" gradientUnits="userSpaceOnUse"><stop offset="0" stop-color="#fbfffb" class="stopColorfbffff svgShape"></stop><stop offset="1" stop-color="#bce6bc" class="stopColorbcc2e6 svgShape"></stop></linearGradient><path fill="url(#W)" d="M2500.9,688.4l-390.7,0c-0.3,0-0.6-0.3-0.6-0.6V665c0-0.3,0.3-0.6,0.6-0.6l390.7,0c0.3,0,0.6,0.3,0.6,0.6     l0,22.8C2501.5,688.1,2501.2,688.4,2500.9,688.4z"></path></g><g fill="#000000" class="color000000 svgShape"><linearGradient id="X" x1="1093.404" x2="1093.404" y1="1699.218" y2="2037.83" gradientUnits="userSpaceOnUse"><stop offset="0" stop-color="#dff3df" class="stopColordfe2f3 svgShape"></stop><stop offset="1" stop-color="#bce6bc" class="stopColorbcc2e6 svgShape"></stop></linearGradient><path fill="url(#X)" d="M619.1,2054.6l0-351.9c0-1.9,1.6-3.5,3.5-3.5l941.7,0c1.9,0,3.5,1.6,3.5,3.5l0,351.9c0,1.9-1.6,3.5-3.5,3.5    l-941.7,0C620.6,2058.1,619.1,2056.5,619.1,2054.6z"></path><linearGradient id="Y" x1="1093.406" x2="1093.406" y1="2029.637" y2="1749.691" gradientUnits="userSpaceOnUse"><stop offset="0" stop-color="#ebf9eb" class="stopColorebf0f9 svgShape"></stop><stop offset=".995" stop-color="#ffffff" class="stopColorffffff svgShape"></stop></linearGradient><path fill="url(#Y)" d="M1544.7,2037.2l-902.6,0c-1.2,0-2.2-1-2.2-2.2l0-312.8c0-1.2,1-2.2,2.2-2.2l902.6,0c1.2,0,2.2,1,2.2,2.2    l0,312.8C1546.9,2036.2,1545.9,2037.2,1544.7,2037.2z"></path><linearGradient id="Z" x1="1111.842" x2="1111.842" y1="1776.106" y2="1793.72" gradientUnits="userSpaceOnUse"><stop offset="0" stop-color="#fbfffb" class="stopColorfbffff svgShape"></stop><stop offset="1" stop-color="#bce6bc" class="stopColorbcc2e6 svgShape"></stop></linearGradient><path fill="url(#Z)" d="M1193.8,1794.8l-163.9,0c-0.3,0-0.6-0.3-0.6-0.6v-17.5c0-0.3,0.3-0.6,0.6-0.6l163.9,0     c0.3,0,0.6,0.3,0.6,0.6v17.5C1194.4,1794.5,1194.1,1794.8,1193.8,1794.8z"></path><linearGradient id="aa" x1="1228.211" x2="1228.211" y1="1822.704" y2="1840.318" gradientUnits="userSpaceOnUse"><stop offset="0" stop-color="#fbfffb" class="stopColorfbffff svgShape"></stop><stop offset="1" stop-color="#bce6bc" class="stopColorbcc2e6 svgShape"></stop></linearGradient><path fill="url(#aa)" d="M1426.5,1841.4h-396.6c-0.3,0-0.6-0.3-0.6-0.6v-17.5c0-0.3,0.3-0.6,0.6-0.6l396.6,0c0.3,0,0.6,0.3,0.6,0.6     v17.5C1427.1,1841.1,1426.8,1841.4,1426.5,1841.4z"></path><linearGradient id="ab" x1="1228.211" x2="1228.211" y1="1869.302" y2="1886.916" gradientUnits="userSpaceOnUse"><stop offset="0" stop-color="#fbfffb" class="stopColorfbffff svgShape"></stop><stop offset="1" stop-color="#bce6bc" class="stopColorbcc2e6 svgShape"></stop></linearGradient><path fill="url(#ab)" d="M1426.5,1888l-396.6,0c-0.3,0-0.6-0.3-0.6-0.6v-17.5c0-0.3,0.3-0.6,0.6-0.6l396.6,0c0.3,0,0.6,0.3,0.6,0.6     v17.5C1427.1,1887.7,1426.8,1888,1426.5,1888z"></path><linearGradient id="ac" x1="1228.211" x2="1228.211" y1="1915.9" y2="1933.514" gradientUnits="userSpaceOnUse"><stop offset="0" stop-color="#fbfffb" class="stopColorfbffff svgShape"></stop><stop offset="1" stop-color="#bce6bc" class="stopColorbcc2e6 svgShape"></stop></linearGradient><path fill="url(#ac)" d="M1426.5,1934.6l-396.6,0c-0.3,0-0.6-0.3-0.6-0.6v-17.5c0-0.3,0.3-0.6,0.6-0.6l396.6,0     c0.3,0,0.6,0.3,0.6,0.6v17.5C1427.1,1934.3,1426.8,1934.6,1426.5,1934.6z"></path><linearGradient id="ad" x1="1228.211" x2="1228.211" y1="1962.498" y2="1980.112" gradientUnits="userSpaceOnUse"><stop offset="0" stop-color="#fbfffb" class="stopColorfbffff svgShape"></stop><stop offset="1" stop-color="#bce6bc" class="stopColorbcc2e6 svgShape"></stop></linearGradient><path fill="url(#ad)" d="M1426.5,1981.2l-396.6,0c-0.3,0-0.6-0.3-0.6-0.6v-17.5c0-0.3,0.3-0.6,0.6-0.6l396.6,0     c0.3,0,0.6,0.3,0.6,0.6v17.5C1427.1,1980.9,1426.8,1981.2,1426.5,1981.2z"></path><linearGradient id="ae" x1="829.274" x2="829.274" y1="1785.439" y2="1960.744" gradientUnits="userSpaceOnUse"><stop offset="0" stop-color="#f7a400" class="stopColorfdae6e svgShape"></stop><stop offset=".995" stop-color="#b93b50" class="stopColorfe5a71 svgShape"></stop></linearGradient><circle cx="829.3" cy="1878.3" r="92.9" fill="url(#ae)"></circle><path fill="#ffffff" d="M842.2,1869.7c7.2-4.4,12-12.2,12-21.3c0-13.8-11.2-25-25-25c-13.8,0-25,11.2-25,25c0,9,4.8,16.9,12,21.3    c-21.3,5.7-37.1,25-37.1,48.1c0,27.6,22.4,50,50,50c27.6,0,50-22.4,50-50C879.3,1894.7,863.5,1875.4,842.2,1869.7z" class="colorffffff svgShape"></path></g><g fill="#000000" class="color000000 svgShape"><linearGradient id="af" x1="1491.758" x2="2043.983" y1="640.516" y2="640.516" gradientUnits="userSpaceOnUse"><stop offset="0" stop-color="#9ecd9e" class="stopColora99ecd svgShape"></stop><stop offset="1" stop-color="#a96974" class="stopColor8d69a9 svgShape"></stop></linearGradient><path fill="url(#af)" d="M1503.8,790.4h-12v-97.3c0-19.1,15.6-34.7,34.7-34.7h341.3c12.5,0,22.7-10.2,22.7-22.7V525.3    c0-19.1,15.6-34.7,34.7-34.7l118.8,0v12l-118.8,0c-12.5,0-22.7,10.2-22.7,22.7v110.3c0,19.1-15.6,34.7-34.7,34.7h-341.3    c-12.5,0-22.7,10.2-22.7,22.7V790.4z"></path></g><g fill="#000000" class="color000000 svgShape"><linearGradient id="ag" x1="388.247" x2="1327.731" y1="914.754" y2="914.754" gradientUnits="userSpaceOnUse"><stop offset="0" stop-color="#9ecd9e" class="stopColora99ecd svgShape"></stop><stop offset="1" stop-color="#a96974" class="stopColor8d69a9 svgShape"></stop></linearGradient><path fill="url(#ag)" d="M527.8,1291H423c-19.1,0-34.7-15.6-34.7-34.7V819.1c0-19.1,15.6-34.7,34.7-34.7l342.6,0    c12.5,0,22.7-10.2,22.7-22.7V573.3c0-19.1,15.6-34.7,34.7-34.7l470,0c19.1,0,34.7,15.6,34.7,34.7l0,217.1h-12l0-217.1    c0-12.5-10.2-22.7-22.7-22.7l-470,0c-12.5,0-22.7,10.2-22.7,22.7v188.4c0,19.1-15.6,34.7-34.7,34.7l-342.6,0    c-12.5,0-22.7,10.2-22.7,22.7v437.1c0,12.5,10.2,22.7,22.7,22.7h104.9V1291z"></path></g><g fill="#000000" class="color000000 svgShape"><linearGradient id="ah" x1="2284.464" x2="2682.206" y1="951.364" y2="951.364" gradientUnits="userSpaceOnUse"><stop offset="0" stop-color="#9ecd9e" class="stopColora99ecd svgShape"></stop><stop offset="1" stop-color="#a96974" class="stopColor8d69a9 svgShape"></stop></linearGradient><path fill="url(#ah)" d="M2296.5,1327.8h-12v-229.1c0-19.1,15.6-34.7,34.7-34.7h328.3c12.5,0,22.7-10.2,22.7-22.7V609.7    c0-12.5-10.2-22.7-22.7-22.7h-80.4v-12h80.4c19.1,0,34.7,15.6,34.7,34.7v431.5c0,19.1-15.6,34.7-34.7,34.7h-328.3    c-12.5,0-22.7,10.2-22.7,22.7V1327.8z"></path></g></svg>