<svg width="90" height="90" viewBox="0 0 90 90" fill="none" xmlns="http://www.w3.org/2000/svg">
<rect width="90" height="90" fill="#E5E5E5"/>
<path d="M54.5 36C51.9804 36 49.5641 37.0009 47.7825 38.7825C46.0009 40.5641 45 42.9804 45 45.5C45 48.0196 46.0009 50.4359 47.7825 52.2175C49.5641 53.9991 51.9804 55 54.5 55C57.0196 55 59.4359 53.9991 61.2175 52.2175C62.9991 50.4359 64 48.0196 64 45.5C64 42.9804 62.9991 40.5641 61.2175 38.7825C59.4359 37.0009 57.0196 36 54.5 36ZM54.5 36H45M54.5 36C57.0196 36 59.4359 34.9991 61.2175 33.2175C62.9991 31.4359 64 29.0196 64 26.5C64 23.9804 62.9991 21.5641 61.2175 19.7825C59.4359 18.0009 57.0196 17 54.5 17H45M35.5 55C32.9804 55 30.5641 56.0009 28.7825 57.7825C27.0009 59.5641 26 61.9804 26 64.5C26 67.0196 27.0009 69.4359 28.7825 71.2175C30.5641 72.9991 32.9804 74 35.5 74C38.0196 74 40.4359 72.9991 42.2175 71.2175C43.9991 69.4359 45 67.0196 45 64.5V55M35.5 55H45M35.5 55C32.9804 55 30.5641 53.9991 28.7825 52.2175C27.0009 50.4359 26 48.0196 26 45.5C26 42.9804 27.0009 40.5641 28.7825 38.7825C30.5641 37.0009 32.9804 36 35.5 36M45 55V36M45 17V36M45 17H35.5C32.9804 17 30.5641 18.0009 28.7825 19.7825C27.0009 21.5641 26 23.9804 26 26.5C26 29.0196 27.0009 31.4359 28.7825 33.2175C30.5641 34.9991 32.9804 36 35.5 36M45 36H35.5" stroke="white" stroke-width="3.5"/>
</svg>
