<svg xmlns="http://www.w3.org/2000/svg" viewBox="0 0 52 52" id="OnlineOrderBooking"><path fill="#e0e2e0" d="m2 22.93.006 2.009c.003.395.262.79.78 1.088l27.823 16.171c1.043.606 2.737.606 3.783 0l14.816-8.555c.528-.304.792-.704.792-1.104l-.008-2.01c0 .4-.261.801-.79 1.105L34.384 40.19c-1.046.603-2.74.603-3.78 0L2.776 24.018c-.517-.301-.776-.694-.776-1.088z" class="colore0e2e2 svgShape"></path><path fill="#715b5f" d="M2.788 21.828c-1.046.604-1.052 1.585-.01 2.19l27.825 16.17c1.04.605 2.735.605 3.78.001l14.818-8.555c1.05-.605 1.055-1.587.014-2.192L21.39 13.272c-1.04-.605-2.735-.605-3.784.001L2.788 21.828z" class="color5b5e71 svgShape"></path><path fill="#59474a" d="M11.324 18.204c-.192.111-.193.292.001.406.19.11.502.11.694-.001.193-.112.196-.294.006-.404a.774.774 0 0 0-.701 0z" class="color474b59 svgShape"></path><path fill="#ffffff" d="M3.964 22.51c-.521.301-.527.797-.008 1.099l27.355 15.897c.522.303 1.377.3 1.898 0l14.818-8.555c.523-.302.528-.797.007-1.1L20.678 13.954c-.52-.302-1.373-.3-1.896.001l-6.159 3.556c-.29.168-.382.419-.232.64l.128.185c.15.16.101.36-.125.49-.225.13-.568.157-.845.07l-.32-.074c-.38-.089-.813-.036-1.104.132l-6.16 3.556z" class="colorffffff svgShape"></path><path fill="#c4c6c4" d="M39.332 38.375a.64.64 0 0 1-.297.506c-.161.094-.296.022-.296-.169 0-.187.135-.416.296-.506.162-.098.293-.023.297.169zM41.128 36.77l2.242-1.294-.176 1.23-1.879 1.084zM46.978 33.957a.647.647 0 0 1-.296.51c-.162.094-.297.019-.297-.169s.135-.416.297-.51.296-.018.296.17zm-2.528 1.459a.653.653 0 0 1-.292.51c-.165.094-.296.019-.296-.169s.13-.416.292-.51c.165-.094.296-.019.296.169zm3.792-2.19a.66.66 0 0 1-.297.514c-.161.09-.292.015-.292-.173s.131-.416.292-.506c.162-.094.297-.023.297.165zm-10.174 5.876a.647.647 0 0 1-.296.51c-.162.094-.297.019-.297-.169s.135-.416.297-.51c.16-.093.296-.018.296.17zm7.646-4.414a.658.658 0 0 1-.292.51c-.162.09-.297.02-.297-.168a.632.632 0 0 1 .293-.51c.165-.098.296-.023.296.168zm-5.122 2.955c0 .188-.132.417-.293.51s-.296.02-.296-.168.131-.417.292-.51c.165-.094.297-.02.297.168zm-3.788 2.187a.647.647 0 0 1-.292.51c-.165.097-.297.018-.297-.17a.638.638 0 0 1 .293-.51c.165-.093.296-.018.296.17z" class="colorc4c6c6 svgShape"></path><path fill="#59474a" d="M5.076 26.186c.067-.04.161-.034.262.02l2.7 1.564c.202.114.357.389.357.617 0 .114-.04.195-.1.235l.14-.087c.06-.034.1-.114.1-.229 0-.228-.154-.51-.348-.624l-2.708-1.556c-.1-.06-.195-.06-.262-.027l-.141.087z" class="color474b59 svgShape"></path><path fill="#715b5f" d="M5.339 26.209c-.202-.117-.365-.024-.366.203a.79.79 0 0 0 .363.624l2.703 1.558c.197.114.356.023.357-.208a.787.787 0 0 0-.355-.619L5.34 26.209z" class="color5b5e71 svgShape"></path><path fill="#59474a" d="M9.092 28.601c.068-.04.162-.034.262.02l2.701 1.564c.202.114.356.389.356.617 0 .114-.04.195-.1.235l.14-.087c.061-.034.101-.114.101-.228 0-.229-.154-.51-.349-.625l-2.707-1.556c-.101-.06-.195-.06-.262-.027l-.142.087z" class="color474b59 svgShape"></path><path fill="#715b5f" d="M9.355 28.624c-.201-.117-.365-.024-.365.203a.79.79 0 0 0 .363.624l2.702 1.558c.198.114.357.023.358-.208a.787.787 0 0 0-.355-.619l-2.703-1.558z" class="color5b5e71 svgShape"></path><path fill="#914c57" d="m19.58 14.19-1.623.938.13.075-.194.113.334.195.195-.113.127.075 1.624-.937-.593-.345zm-.393.833-.45-.262.15-.086.453.262-.153.086zm.225-.13-.45-.263.15-.087.45.263-.15.086zm.225-.128-.45-.263.15-.086.45.262-.15.087zm-.23-.394.15-.086.455.262-.15.086-.454-.262zM6.782 21.393l.684.398.124-.072-.685-.397zM6.672 21.567l.589.342.124-.071-.589-.342zM6.55 21.734l.506.294.124-.072-.506-.293zM6.418 21.892l.435.253.123-.071-.434-.253zM6.325 22.076l.323.187.123-.071-.322-.187zM5.253 22.276l.685.397.123-.071-.684-.398zM5.144 22.45l.589.342.123-.072-.589-.342zM5.022 22.616l.505.294.124-.071-.506-.294zM4.887 22.776l.435.253.124-.072-.435-.252zM4.795 22.96l.322.187.124-.071-.323-.188z" class="color4c7891 svgShape"></path><path fill="#b93b50" d="M43.86 30.184c0 .091-.06.183-.183.254l-10.683 6.168a.96.96 0 0 1-.872 0l-4.89-2.843c-.12-.07-.18-.16-.18-.25l.001.649c0 .09.06.18.18.25l4.891 2.843c.24.14.63.14.872 0l10.683-6.168c.122-.07.183-.162.183-.254l-.002-.65z" class="colorcc4444 svgShape"></path><path fill="#e73c58" d="M27.234 33.258c-.241.14-.245.364-.003.505l4.891 2.843c.24.139.63.139.872 0l10.683-6.168c.244-.14.243-.366.003-.505l-4.891-2.842a.952.952 0 0 0-.872 0l-10.683 6.167z" class="colore74c3c svgShape"></path><path fill="#ffffff" d="M35.372 30.944c.358-.01.692.073.994.249.305.177.453.37.447.58-.006.208-.198.423-.577.642l-.653.377-1.957-1.137.674-.39c.354-.203.71-.31 1.072-.321zm.23 1.477.37-.214c.24-.138.364-.275.378-.414.016-.14-.089-.272-.31-.4-.448-.261-.929-.242-1.445.056l-.333.192 1.34.78m-2.498-.29c.23-.016.455.04.678.17.32.187.384.388.185.6l1.226.116-.423.244-1.129-.112-.436.252.659.383-.333.192-1.956-1.137.733-.423c.299-.173.562-.268.796-.285zm-.199 1.096.413-.239c.188-.109.287-.198.3-.27.008-.074-.05-.147-.179-.221a.617.617 0 0 0-.367-.094c-.116.013-.263.071-.444.175l-.42.243.697.406m-2.835.424a2.06 2.06 0 0 1 1.028-.257c.394-.002.73.08 1.02.248.287.167.43.364.424.59-.004.228-.157.427-.449.595-.294.17-.634.256-1.027.258-.391.003-.733-.08-1.02-.246-.29-.169-.428-.365-.424-.593.006-.227.154-.425.448-.595zm1.02 1.167c.273.003.507-.052.703-.165.194-.112.29-.248.286-.406-.005-.158-.104-.293-.302-.408a1.406 1.406 0 0 0-.703-.176 1.35 1.35 0 0 0-.701.164c-.196.113-.292.249-.288.407.004.158.104.293.301.408.198.115.432.173.704.176M35.828 30.384l1.956 1.137 1.417-.818-.31-.181-1.084.626-.526-.305.942-.544-.292-.17-.942.544-.518-.301 1.05-.607-.31-.18zM39.197 28.614c.232-.018.458.038.681.168.32.186.384.387.184.6l1.227.115-.423.245-1.129-.112-.436.252.659.383-.333.192-1.957-1.137.733-.423c.3-.173.563-.269.794-.283zm-.196 1.093.413-.238c.188-.109.286-.198.297-.27.01-.074-.048-.147-.176-.222a.608.608 0 0 0-.37-.092c-.116.013-.263.071-.44.174l-.422.243.698.405" class="colorffffff svgShape"></path><path fill="#d69618" d="m29.856 14.913-.034 10.591-9.589 5.573.034-10.591z" class="colord6b218 svgShape"></path><path fill="#f3f8f3" d="M28.742 16.936v1.675l-.009.171v1.636l-7.392 4.3V24.1l.01-.438v-1.408l.009-.447v-.571z" class="colorecf0f1 svgShape"></path><path fill="#e59e13" d="m20.267 20.486-.034 10.591-9.652-5.573.034-10.591z" class="colore5bd13 svgShape"></path><path fill="#f7a400" d="m29.858 14.92-9.591 5.572-4.217-2.441-1.22-.69-.025-.012-4.192-2.429 9.592-5.573 4.216 2.429.013.012 1.208.691z" class="colorf1c40f svgShape"></path><path fill="#e59e13" d="m25.642 12.479-9.592 5.572-1.22-.69-.025-.012 9.616-5.573.013.012z" class="colore5bd13 svgShape"></path><path fill="#d69618" d="m16.05 18.051-.011 4.007-1.234-.704.012-4.007z" class="colord6b218 svgShape"></path><path fill="#4f3f42" d="m22.402 26.406.332.632-.205.119-.454.26z" class="color3f434f svgShape"></path><path fill="#4f3f42" d="m22.529 27.157.003 1.25-.248.144-.004-1.251zM23.762 27.809l.001.268-1.714.989-.001-.267zM25.583 24.57l.003.89c0 .282-.162.608-.378.774l.003.803c.151-.07.265-.063.265.02l-.668.387c0-.084.114-.222.265-.327l-.002-.803c-.099.039-.184.03-.25-.012-.08-.059-.13-.168-.131-.324l-.003-.891.896-.518zM23.522 26.584l.003 1.25-.248.143-.004-1.25zM23.397 25.832l.33.633-.205.119-.453.259z" class="color3f434f svgShape"></path><path fill="#a4b3a4" d="m28.742 18.611-.009.171-7.382 4.262v-.162zM28.733 19.219v.181l-7.382 4.262v-.171zM28.733 19.838v.18l-7.392 4.262v-.18zM28.742 17.992v.171l-7.391 4.272v-.181zM28.742 17.374v.171l-7.382 4.262v-.171z" class="colora4a9b3 svgShape"></path></svg>